<?xml version="1.0" encoding="UTF-8" standalone="no"?><!DOCTYPE svg PUBLIC "-//W3C//DTD SVG 1.1//EN" "http://www.w3.org/Graphics/SVG/1.1/DTD/svg11.dtd"><svg width="12" height="20" viewBox="0 0 12 20" version="1.1" xmlns="http://www.w3.org/2000/svg" xmlns:xlink="http://www.w3.org/1999/xlink" xml:space="preserve" xmlns:serif="http://www.serif.com/" style="fill-rule:evenodd;clip-rule:evenodd;stroke-linejoin:round;stroke-miterlimit:2;"><path d="M6,20c-3.309,0 -6,-2.557 -6,-5.698l0,-10.17c0,-2.278 1.944,-4.132 4.333,-4.132c2.39,0 4.334,1.854 4.334,4.132l-0.006,10.177c0,1.414 -1.197,2.565 -2.667,2.565c-1.47,0 -2.666,-1.151 -2.666,-2.566l0.005,-9.391c0.001,-0.552 0.449,-0.999 1,-0.999l0.001,0c0.552,0 1,0.448 0.999,1.001l-0.005,9.39c0,0.311 0.298,0.565 0.666,0.565c0.368,0 0.667,-0.254 0.667,-0.566l0.006,-10.177c0,-1.175 -1.047,-2.131 -2.334,-2.131c-1.286,0 -2.333,0.956 -2.333,2.132l0,10.17c0,2.039 1.794,3.698 4,3.698c2.206,0 4,-1.659 4,-3.698l0,-10.17c0,-0.553 0.448,-1 1,-1c0.552,0 1,0.447 1,1l0,10.17c0,3.141 -2.691,5.698 -6,5.698Z" style="fill:#00033a;"/></svg>