<?xml version="1.0" encoding="UTF-8" standalone="no"?><!DOCTYPE svg PUBLIC "-//W3C//DTD SVG 1.1//EN" "http://www.w3.org/Graphics/SVG/1.1/DTD/svg11.dtd"><svg width="100%" height="100%" viewBox="0 0 18 18" version="1.1" xmlns="http://www.w3.org/2000/svg" xmlns:xlink="http://www.w3.org/1999/xlink" xml:space="preserve" xmlns:serif="http://www.serif.com/" style="fill-rule:evenodd;clip-rule:evenodd;stroke-linejoin:round;stroke-miterlimit:2;"><path d="M12.333,8.167l-2.5,0l0,-2.5c0,-0.461 -0.373,-0.834 -0.833,-0.834c-0.46,0 -0.833,0.373 -0.833,0.834l0,3.333c0,0.461 0.373,0.833 0.833,0.833l3.333,0c0.461,0 0.834,-0.372 0.834,-0.833c0,-0.461 -0.373,-0.833 -0.834,-0.833m-3.333,7.5c-3.676,0 -6.667,-2.991 -6.667,-6.667c0,-3.676 2.991,-6.667 6.667,-6.667c3.676,0 6.667,2.991 6.667,6.667c0,3.676 -2.991,6.667 -6.667,6.667m0,-15c-4.595,0 -8.333,3.738 -8.333,8.333c0,4.595 3.738,8.333 8.333,8.333c4.595,0 8.333,-3.738 8.333,-8.333c0,-4.595 -3.738,-8.333 -8.333,-8.333" style="fill:#8ec640;"/></svg>