<svg width="322" height="236" viewBox="0 0 322 236" fill="none" xmlns="http://www.w3.org/2000/svg">
<path d="M0.499756 182.5L0.499734 0.499512L321.5 0.499507L321.5 182.5L0.499756 182.5Z" stroke="black" stroke-opacity="0.3"/>
<path d="M63.2927 218.52C63.0527 219.6 62.5327 220.48 61.7327 221.12C60.8927 221.8 59.7327 222.16 58.3727 222.16C57.0127 222.16 55.9327 221.96 54.2927 220.88C53.9727 220.72 53.7327 220.76 53.5727 221.04L52.2127 223.88C52.0127 224.2 52.0927 224.44 52.4527 224.64C54.3327 225.88 56.6927 226.4 58.7727 226.4C62.1327 226.4 64.8127 225.36 66.5727 223.48C68.0927 221.84 68.9727 219.56 68.9727 216.84C68.9727 214.48 68.2127 212.48 66.9727 210.96C65.0927 208.64 62.0527 207.36 58.6527 207.36C56.5727 207.36 54.3327 207.88 52.4527 209.12C52.1727 209.32 52.0927 209.64 52.2127 209.92L53.5327 212.68C53.6927 212.96 53.9727 213.12 54.3327 212.88C56.0127 211.92 57.1327 211.64 58.2927 211.64C59.6527 211.64 60.8927 212.04 61.7327 212.84C62.4127 213.4 62.9327 214.2 63.1727 215.08H55.2127C54.8927 215.08 54.6127 215.36 54.6127 215.72V217.92C54.6127 218.24 54.8927 218.52 55.2127 218.52H63.2927ZM86.3105 207.68C85.7505 207.68 85.4705 207.84 85.1505 208.28L80.3105 214.44H78.3905V208.28C78.3905 207.92 78.1105 207.68 77.7905 207.68H73.7505C73.3905 207.68 73.1505 207.92 73.1505 208.28V225.4C73.1505 225.72 73.3905 226 73.7505 226H77.7905C78.1105 226 78.3905 225.72 78.3905 225.4V219.04H80.2705L85.3105 225.4C85.5905 225.84 85.9105 226 86.4305 226H91.3105C91.8305 226 92.0705 225.48 91.5905 224.92L84.7505 216.52L91.2705 208.76C91.7905 208.16 91.5505 207.68 90.9905 207.68H86.3105ZM98.9884 216.88C98.9884 213.92 100.788 211.8 103.668 211.8C106.548 211.8 108.348 213.92 108.348 216.88C108.348 219.84 106.548 221.96 103.668 221.96C100.788 221.96 98.9884 219.84 98.9884 216.88ZM93.7883 216.88C93.7883 222.84 98.1484 226.4 103.668 226.4C109.188 226.4 113.588 222.84 113.588 216.88C113.588 210.92 109.188 207.32 103.668 207.32C98.1484 207.32 93.7883 210.92 93.7883 216.88ZM124.361 212.32H130.281V225.4C130.281 225.72 130.561 226 130.881 226H134.921C135.281 226 135.521 225.72 135.521 225.4V208.28C135.521 207.92 135.281 207.68 134.921 207.68H119.721C119.401 207.68 119.121 207.96 119.121 208.28V210.44C119.121 213.96 118.961 216.92 118.281 219.68C117.801 221.4 117.121 223.08 116.081 224.76C115.641 225.56 115.921 226 116.561 226H119.881C120.561 226 120.881 225.88 121.321 225.36C122.321 224.08 122.961 222.4 123.441 220.52C124.001 218.04 124.241 215.12 124.361 212.32ZM144.809 216.88C144.809 213.92 146.609 211.8 149.489 211.8C152.369 211.8 154.169 213.92 154.169 216.88C154.169 219.84 152.369 221.96 149.489 221.96C146.609 221.96 144.809 219.84 144.809 216.88ZM139.609 216.88C139.609 222.84 143.969 226.4 149.489 226.4C155.009 226.4 159.409 222.84 159.409 216.88C159.409 210.92 155.009 207.32 149.489 207.32C143.969 207.32 139.609 210.92 139.609 216.88ZM168.181 226C168.501 226 168.781 225.72 168.781 225.4V212.32H176.781C177.101 212.32 177.381 212.08 177.381 211.72V208.28C177.381 207.92 177.101 207.68 176.781 207.68H164.141C163.781 207.68 163.541 207.92 163.541 208.28V225.4C163.541 225.72 163.781 226 164.141 226H168.181ZM199.526 208.28C199.526 207.92 199.246 207.68 198.926 207.68H194.846C194.486 207.68 194.246 207.92 194.246 208.28V210.48L186.126 217.76V208.28C186.126 207.92 185.846 207.68 185.526 207.68H181.446C181.086 207.68 180.846 207.92 180.846 208.28V225.4C180.846 225.72 181.086 226 181.446 226H185.526C185.846 226 186.126 225.72 186.126 225.4V223.24L194.246 216V225.4C194.246 225.72 194.486 226 194.846 226H198.926C199.246 226 199.526 225.72 199.526 225.4V208.28ZM221.913 208.28C221.913 207.92 221.633 207.68 221.313 207.68H217.233C216.873 207.68 216.633 207.92 216.633 208.28V215.92C215.553 216.24 214.233 216.56 212.913 216.56C211.793 216.56 210.953 216.36 210.433 215.84C209.873 215.32 209.633 214.52 209.633 213.4V208.28C209.633 207.92 209.353 207.68 209.033 207.68H204.953C204.593 207.68 204.313 207.92 204.313 208.28V213.4C204.313 216.04 204.993 217.92 206.353 219.16C207.673 220.36 209.673 220.92 212.353 220.92C213.753 220.92 215.273 220.68 216.633 220.28V225.4C216.633 225.72 216.873 226 217.233 226H221.313C221.633 226 221.913 225.72 221.913 225.4V208.28ZM240.696 207.68C240.336 207.68 240.096 207.92 240.096 208.28V214.44H232.336V208.28C232.336 207.92 232.056 207.68 231.736 207.68H227.696C227.336 207.68 227.096 207.92 227.096 208.28V225.4C227.096 225.72 227.336 226 227.696 226H231.736C232.056 226 232.336 225.72 232.336 225.4V219.04H240.096V225.4C240.096 225.72 240.336 226 240.696 226H244.696C245.056 226 245.296 225.72 245.296 225.4V208.28C245.296 207.92 245.056 207.68 244.696 207.68H240.696ZM254.574 216.88C254.574 213.92 256.374 211.8 259.254 211.8C262.134 211.8 263.934 213.92 263.934 216.88C263.934 219.84 262.134 221.96 259.254 221.96C256.374 221.96 254.574 219.84 254.574 216.88ZM249.374 216.88C249.374 222.84 253.734 226.4 259.254 226.4C264.774 226.4 269.174 222.84 269.174 216.88C269.174 210.92 264.774 207.32 259.254 207.32C253.734 207.32 249.374 210.92 249.374 216.88Z" fill="#8DC63F"/>
<g clip-path="url(#clip0)">
<path d="M157.1 28.3C163.672 28.3 169 22.9722 169 16.4C169 9.82781 163.672 4.5 157.1 4.5C150.528 4.5 145.2 9.82781 145.2 16.4C145.2 22.9722 150.528 28.3 157.1 28.3Z" stroke="white" stroke-width="4.9493" stroke-miterlimit="10" stroke-linecap="round" stroke-linejoin="round"/>
<path d="M137.5 15.3H176.6" stroke="white" stroke-width="4.9493" stroke-miterlimit="10" stroke-linecap="round" stroke-linejoin="round"/>
<path d="M158.5 58.8999H143.4L138.8 78.6999L140.1 162.3H151.4L156.7 115.6" stroke="white" stroke-width="4.9493" stroke-miterlimit="10" stroke-linecap="round" stroke-linejoin="round"/>
<path d="M154.8 58.8999H170L174.5 78.6999L173.2 162.3H161.9L156.7 115.6" stroke="white" stroke-width="4.9493" stroke-miterlimit="10" stroke-linecap="round" stroke-linejoin="round"/>
<path d="M143.3 37.8V58.9001" stroke="white" stroke-width="4.9493" stroke-miterlimit="10" stroke-linecap="round" stroke-linejoin="round"/>
<path d="M168.2 35.2V58.9" stroke="white" stroke-width="4.9493" stroke-miterlimit="10" stroke-linecap="round" stroke-linejoin="round"/>
<path d="M155.3 28.3999C154.8 28.6999 135.9 39.4999 135.9 39.4999L122.2 65.5999L102.5 87.5999L128.3 74.0999L143.3 52.4999" stroke="white" stroke-width="4.9493" stroke-miterlimit="10" stroke-linecap="round" stroke-linejoin="round"/>
<path d="M157.1 28.3999C157.6 28.6999 176.5 39.4999 176.5 39.4999L190.2 65.6999L209.9 87.6999L184.1 74.0999L169.1 52.4999" stroke="white" stroke-width="4.9493" stroke-miterlimit="10" stroke-linecap="round" stroke-linejoin="round"/>
<path d="M142.7 164.2V170.6L137.7 180.2H151.9L147.7 170.5V162.6" stroke="white" stroke-width="4.9493" stroke-miterlimit="10" stroke-linecap="round" stroke-linejoin="round"/>
<path d="M165.3 164.2V170.6L160.3 180.2H174.5L170.4 170.5V162.6" stroke="white" stroke-width="4.9493" stroke-miterlimit="10" stroke-linecap="round" stroke-linejoin="round"/>
<path d="M200.4 9.3999C200.4 9.3999 198.9 23.4999 198.1 30.3999C197.5 35.5999 207.3 37.8999 207.3 37.8999C207.3 37.8999 217.3 37.6999 217.9 32.4999C218.6 25.5999 220.2 11.4999 220.2 11.4999" stroke="white" stroke-width="4.9493" stroke-miterlimit="10" stroke-linecap="round" stroke-linejoin="round"/>
<path d="M210.2 11.5L207.7 35.1" stroke="white" stroke-width="4.9493" stroke-miterlimit="10" stroke-linecap="round" stroke-linejoin="round"/>
<path d="M207.4 38L192.1 179.6" stroke="white" stroke-width="4.9493" stroke-miterlimit="10" stroke-linecap="round" stroke-linejoin="round"/>
<path d="M203.6 48.2C203.9 48.1 208.9 48.8 208.9 48.8" stroke="white" stroke-width="4.9493" stroke-miterlimit="10" stroke-linecap="round" stroke-linejoin="round"/>
<path d="M204.2 43.0999C204.5 42.9999 209.5 43.6999 209.5 43.6999" stroke="white" stroke-width="4.9493" stroke-miterlimit="10" stroke-linecap="round" stroke-linejoin="round"/>
</g>
<defs>
<clipPath id="clip0">
<rect width="122.7" height="180.6" fill="white" transform="translate(99.9998 2)"/>
</clipPath>
</defs>
</svg>
