<svg width="25" height="26" viewBox="0 0 25 26" fill="none" xmlns="http://www.w3.org/2000/svg">
<g id="Instagram">
<g id="Instagram_2">
<path id="Vector" d="M9.02877 13.1921C9.02877 11.2919 10.5829 9.75111 12.5005 9.75111C14.418 9.75111 15.973 11.2919 15.973 13.1921C15.973 15.0924 14.418 16.6332 12.5005 16.6332C10.5829 16.6332 9.02877 15.0924 9.02877 13.1921ZM7.1516 13.1921C7.1516 16.1195 9.54628 18.4925 12.5005 18.4925C15.4546 18.4925 17.8493 16.1195 17.8493 13.1921C17.8493 10.2648 15.4546 7.89178 12.5005 7.89178C9.54628 7.89178 7.1516 10.2648 7.1516 13.1921ZM16.8111 7.68162C16.811 7.92661 16.8842 8.16612 17.0214 8.36987C17.1587 8.57363 17.3539 8.73247 17.5822 8.82631C17.8106 8.92016 18.0619 8.94478 18.3044 8.89709C18.5469 8.84939 18.7697 8.7315 18.9446 8.55834C19.1195 8.38518 19.2386 8.16452 19.287 7.92426C19.3353 7.684 19.3106 7.43493 19.2161 7.20856C19.1216 6.98218 18.9615 6.78866 18.7559 6.65247C18.5504 6.51629 18.3088 6.44354 18.0616 6.44344H18.0611C17.7297 6.4436 17.4119 6.57408 17.1775 6.80624C16.9432 7.03839 16.8113 7.35324 16.8111 7.68162ZM8.2921 21.5942C7.27652 21.5484 6.72451 21.3808 6.35768 21.2391C5.87134 21.0515 5.52434 20.8281 5.1595 20.467C4.79467 20.106 4.56884 19.7625 4.38033 19.2806C4.23733 18.9172 4.06817 18.37 4.022 17.3637C3.9715 16.2756 3.96142 15.9488 3.96142 13.1922C3.96142 10.4357 3.97233 10.1098 4.022 9.02079C4.06825 8.01441 4.23867 7.46832 4.38033 7.1039C4.56967 6.62198 4.79517 6.27812 5.1595 5.9166C5.52384 5.55507 5.87051 5.33128 6.35768 5.14449C6.72435 5.00279 7.27652 4.83515 8.2921 4.7894C9.39011 4.73936 9.71994 4.72937 12.5005 4.72937C15.281 4.72937 15.6111 4.74019 16.7101 4.7894C17.7256 4.83523 18.2767 5.00411 18.6445 5.14449C19.1308 5.33128 19.4778 5.55556 19.8427 5.9166C20.2075 6.27763 20.4325 6.62198 20.6218 7.1039C20.7648 7.46725 20.934 8.01441 20.9802 9.02079C21.0307 10.1098 21.0407 10.4357 21.0407 13.1922C21.0407 15.9488 21.0307 16.2747 20.9802 17.3637C20.9339 18.37 20.7639 18.917 20.6218 19.2806C20.4325 19.7625 20.207 20.1063 19.8427 20.467C19.4783 20.8277 19.1308 21.0515 18.6445 21.2391C18.2778 21.3808 17.7256 21.5485 16.7101 21.5942C15.6121 21.6443 15.2822 21.6543 12.5005 21.6543C9.71869 21.6543 9.38977 21.6443 8.2921 21.5942ZM8.20585 2.93238C7.09693 2.98243 6.33918 3.15667 5.67742 3.41183C4.99209 3.67534 4.41192 4.02886 3.83217 4.60245C3.25241 5.17603 2.89658 5.75185 2.63066 6.43097C2.37316 7.08714 2.19732 7.83761 2.14682 8.93648C2.09549 10.0371 2.08374 10.3889 2.08374 13.1921C2.08374 15.9953 2.09549 16.3472 2.14682 17.4478C2.19732 18.5468 2.37316 19.2972 2.63066 19.9533C2.89658 20.632 3.2525 21.2085 3.83217 21.7818C4.41183 22.3552 4.99209 22.7082 5.67742 22.9725C6.34043 23.2276 7.09693 23.4019 8.20585 23.4519C9.31711 23.502 9.67161 23.5144 12.5005 23.5144C15.3293 23.5144 15.6844 23.5028 16.7951 23.4519C17.9041 23.4019 18.6613 23.2276 19.3235 22.9725C20.0084 22.7082 20.589 22.3554 21.1687 21.7818C21.7485 21.2083 22.1036 20.632 22.3703 19.9533C22.6278 19.2972 22.8044 18.5467 22.8541 17.4478C22.9046 16.3464 22.9163 15.9953 22.9163 13.1921C22.9163 10.3889 22.9046 10.0371 22.8541 8.93648C22.8036 7.83753 22.6278 7.08673 22.3703 6.43097C22.1036 5.75226 21.7476 5.17694 21.1687 4.60245C20.5899 4.02795 20.0084 3.67534 19.3243 3.41183C18.6613 3.15667 17.904 2.9816 16.7959 2.93238C15.6852 2.88234 15.3301 2.86987 12.5013 2.86987C9.67244 2.86987 9.31711 2.88152 8.20585 2.93238Z" fill="white"/>
</g>
</g>
</svg>
