<?xml version="1.0" encoding="utf-8"?>
<!-- Generator: Adobe Illustrator 23.0.1, SVG Export Plug-In . SVG Version: 6.00 Build 0)  -->
<svg version="1.1" id="Layer_1" xmlns="http://www.w3.org/2000/svg" xmlns:xlink="http://www.w3.org/1999/xlink" x="0px" y="0px"
	 viewBox="0 0 24 24" style="enable-background:new 0 0 24 24;" xml:space="preserve">
<style type="text/css">
	.st0{fill:#FFFFFF;}
</style>
<path id="Vector" class="st0" d="M8.3,12c0-2,1.6-3.7,3.7-3.7c2,0,3.7,1.6,3.7,3.7c0,2-1.6,3.7-3.7,3.7C10,15.7,8.3,14,8.3,12z
	 M6.4,12c0,3.1,2.5,5.6,5.6,5.6c3.1,0,5.6-2.5,5.6-5.6c0-3.1-2.5-5.6-5.6-5.6C8.9,6.4,6.4,8.9,6.4,12z M16.6,6.1
	c0,0.3,0.1,0.5,0.2,0.7c0.1,0.2,0.4,0.4,0.6,0.5c0.2,0.1,0.5,0.1,0.8,0.1c0.3-0.1,0.5-0.2,0.7-0.4c0.2-0.2,0.3-0.4,0.4-0.7
	c0.1-0.3,0-0.5-0.1-0.8C19,5.4,18.8,5.2,18.6,5c-0.2-0.1-0.5-0.2-0.7-0.2h0c-0.3,0-0.7,0.1-0.9,0.4C16.7,5.4,16.6,5.8,16.6,6.1z
	 M7.6,21c-1.1,0-1.7-0.2-2-0.4c-0.5-0.2-0.9-0.4-1.3-0.8c-0.4-0.4-0.6-0.8-0.8-1.3c-0.2-0.4-0.3-1-0.4-2C3,15.3,3,14.9,3,12
	C3,9.1,3,8.7,3,7.6c0-1.1,0.2-1.7,0.4-2C3.6,5,3.9,4.6,4.2,4.2C4.6,3.9,5,3.6,5.5,3.4c0.4-0.2,1-0.3,2-0.4C8.7,3,9.1,3,12,3
	c2.9,0,3.3,0,4.4,0.1c1.1,0,1.7,0.2,2,0.4c0.5,0.2,0.9,0.4,1.3,0.8c0.4,0.4,0.6,0.8,0.8,1.3c0.2,0.4,0.3,1,0.4,2
	C21,8.7,21,9.1,21,12c0,2.9,0,3.3-0.1,4.4c0,1.1-0.2,1.7-0.4,2c-0.2,0.5-0.4,0.9-0.8,1.3c-0.4,0.4-0.8,0.6-1.3,0.8
	c-0.4,0.2-1,0.3-2,0.4C15.3,21,14.9,21,12,21C9.1,21,8.7,21,7.6,21z M7.5,1.1c-1.2,0.1-2,0.2-2.7,0.5C4.1,1.9,3.5,2.2,2.8,2.8
	c-0.6,0.6-1,1.2-1.3,1.9C1.3,5.5,1.1,6.3,1.1,7.5C1,8.6,1,9,1,12s0,3.4,0.1,4.5c0.1,1.2,0.2,2,0.5,2.7c0.3,0.7,0.7,1.3,1.3,1.9
	c0.6,0.6,1.2,1,1.9,1.3c0.7,0.3,1.5,0.5,2.7,0.5C8.6,23,9,23,12,23c3,0,3.4,0,4.5-0.1c1.2-0.1,2-0.2,2.7-0.5
	c0.7-0.3,1.3-0.7,1.9-1.3c0.6-0.6,1-1.2,1.3-1.9c0.3-0.7,0.5-1.5,0.5-2.7C23,15.4,23,15,23,12s0-3.4-0.1-4.5c-0.1-1.2-0.2-2-0.5-2.7
	c-0.3-0.7-0.7-1.3-1.3-1.9c-0.6-0.6-1.2-1-1.9-1.3c-0.7-0.3-1.5-0.5-2.7-0.5C15.4,1,15,1,12,1C9,1,8.6,1,7.5,1.1z"/>
</svg>
