<svg width="104" height="10" viewBox="0 0 104 10" fill="none" xmlns="http://www.w3.org/2000/svg">
<g clip-path="url(#clip0)">
<path d="M0 0H2.4154V5.10067H3.10551L4.55475 2.75168H7.17717L5.10684 5.97315L7.52223 9.79866H4.76178L3.24353 7.04698H2.4154V9.79866H0V0Z" fill="white"/>
<path d="M12.146 5.36908H12.353V5.30197C12.353 4.69794 11.8699 4.4966 11.3178 4.4966C10.6277 4.4966 9.8686 4.83217 9.31651 5.16774L8.48837 3.48989C9.10947 3.02009 10.3517 2.55029 11.5939 2.55029C13.5952 2.55029 14.8374 3.62412 14.8374 5.4362V9.79861H12.629V9.39593C12.629 9.19459 12.629 8.92613 12.629 8.92613C12.146 9.59727 11.3178 9.93284 10.4897 9.93284C9.10947 9.93284 8.14332 8.99325 8.14332 7.78519C8.0743 5.906 10.3517 5.36908 12.146 5.36908ZM11.1798 8.18788C11.8699 8.18788 12.422 7.51674 12.422 6.91271V6.71137H12.215C11.4559 6.71137 10.4897 6.91271 10.4897 7.51674C10.4897 7.91942 10.6967 8.18788 11.1798 8.18788Z" fill="white"/>
<path d="M16.6317 0H19.0471V6.91275C19.0471 7.58389 19.1851 7.78524 19.7372 7.78524C19.8062 7.78524 19.9442 7.78524 20.0133 7.78524V9.86577C19.8752 9.86577 19.5992 9.93289 19.2541 9.93289C17.9429 9.93289 16.5627 9.59732 16.5627 7.24832V0H16.6317Z" fill="white"/>
<path d="M25.0511 5.36908H25.2582V5.30197C25.2582 4.69794 24.7751 4.4966 24.223 4.4966C23.5329 4.4966 22.7737 4.83217 22.2217 5.16774L21.3935 3.48989C22.0146 3.02009 23.2568 2.55029 24.499 2.55029C26.5004 2.55029 27.7426 3.62412 27.7426 5.4362V9.79861H25.5342V9.39593C25.5342 9.19459 25.5342 8.92613 25.5342 8.92613C25.0511 9.59727 24.223 9.93284 23.3949 9.93284C22.0146 9.93284 21.0485 8.99325 21.0485 7.78519C20.9795 5.906 23.2568 5.36908 25.0511 5.36908ZM24.085 8.18788C24.7751 8.18788 25.3272 7.51674 25.3272 6.91271V6.71137H25.1201C24.361 6.71137 23.3949 6.91271 23.3949 7.51674C23.3949 7.91942 23.6019 8.18788 24.085 8.18788Z" fill="white"/>
<path d="M33.1944 2.55029C34.2296 2.55029 35.3338 2.88586 36.0929 3.62412L35.0577 5.23486C34.6436 4.83217 33.9535 4.56372 33.3324 4.56372C32.1592 4.56372 31.6071 5.4362 31.6071 6.24157C31.6071 7.04694 32.2282 7.98653 33.4014 7.98653C34.0916 7.98653 34.8507 7.58385 35.4028 7.11405L36.2999 8.7919C35.6098 9.53016 34.3676 9.93284 33.1944 9.93284C30.572 9.93284 29.1227 8.18788 29.1227 6.24157C29.1227 4.36237 30.572 2.55029 33.1944 2.55029Z" fill="white"/>
<path d="M37.6111 0H40.0265V3.08725C40.0265 3.42282 40.0265 3.69128 40.0265 3.69128C40.4406 3.02013 41.2687 2.55034 42.2349 2.55034C43.6841 2.55034 44.8573 3.22148 44.8573 5.16779V9.73154H42.4419V5.63758C42.4419 4.96644 42.1659 4.69799 41.6138 4.69799C40.5786 4.69799 40.0265 5.57047 40.0265 6.6443V9.79866H37.6111V0Z" fill="white"/>
<path d="M46.7205 2.75168H49.1359V9.79866H46.7205V2.75168ZM46.7895 0H49.2049V1.87919H46.7895V0Z" fill="white"/>
<path d="M54.8638 0H57.2792V2.75168C57.2792 3.08725 57.2792 3.3557 57.2792 3.3557C57.6933 2.88591 58.5214 2.61745 59.2115 2.61745C61.2129 2.61745 62.4551 4.09396 62.4551 6.30872C62.4551 8.52349 61.0058 10 59.0735 10C58.3144 10 57.5553 9.73154 57.0722 9.19463C57.0722 9.19463 57.0722 9.39597 57.0722 9.59732V9.86577H54.8638V0ZM58.6594 7.98658C59.4186 7.98658 60.1087 7.38255 60.1087 6.30872C60.1087 5.2349 59.5566 4.56376 58.6594 4.56376C57.9693 4.56376 57.2792 5.10067 57.2792 6.30872C57.2792 7.18121 57.6933 7.98658 58.6594 7.98658Z" fill="white"/>
<path d="M64.1115 2.75168H66.4579V3.95974C66.4579 4.16108 66.4579 4.42954 66.4579 4.42954C66.734 3.48994 67.7001 2.68457 68.8043 2.68457C68.8733 2.68457 69.0113 2.68457 69.0803 2.68457V5.03356C69.0113 5.03356 68.7353 4.96645 68.5973 4.96645C67.217 4.96645 66.5959 5.77182 66.5959 7.1141V9.86578H64.1805V2.75168H64.1115Z" fill="white"/>
<path d="M73.9112 5.36908H74.1182V5.30197C74.1182 4.69794 73.6351 4.4966 73.083 4.4966C72.3929 4.4966 71.6338 4.83217 71.0817 5.16774L70.2536 3.48989C70.8747 3.02009 72.1169 2.55029 73.3591 2.55029C75.3604 2.55029 76.6026 3.62412 76.6026 5.4362V9.79861H74.3943V9.39593C74.3943 9.19459 74.3943 8.92613 74.3943 8.92613C73.9112 9.59727 73.083 9.93284 72.2549 9.93284C70.8747 9.93284 69.9085 8.99325 69.9085 7.78519C69.7705 5.906 72.1169 5.36908 73.9112 5.36908ZM72.876 8.18788C73.5661 8.18788 74.1182 7.51674 74.1182 6.91271V6.71137H73.9112C73.1521 6.71137 72.1859 6.91271 72.1859 7.51674C72.1859 7.91942 72.4619 8.18788 72.876 8.18788Z" fill="white"/>
<path d="M78.3968 2.75142H80.7431V3.35544C80.7431 3.55678 80.7431 3.82524 80.7431 3.82524C81.0882 3.28833 81.7783 2.61719 83.0895 2.61719C84.5388 2.61719 85.7119 3.28833 85.7119 5.23464V9.7984H83.2966V5.63732C83.2966 4.96618 83.0205 4.69772 82.4684 4.69772C81.3642 4.69772 80.8812 5.57021 80.8812 6.57692V9.7984H78.4658V2.75142H78.3968Z" fill="white"/>
<path d="M90.4048 2.55034C91.0259 2.55034 91.8541 2.61745 92.3372 3.08725C92.3372 3.08725 92.3372 2.95302 92.3372 2.75168V0H94.7526V9.79866H92.4752V9.32886C92.4752 9.12752 92.4752 8.92618 92.4752 8.92618C91.9921 9.59732 91.233 9.93289 90.4048 9.93289C88.4035 9.93289 87.1613 8.45638 87.1613 6.24161C87.0923 4.02685 88.4725 2.55034 90.4048 2.55034ZM90.9569 7.98658C91.716 7.98658 92.4062 7.44967 92.4062 6.24161C92.4062 5.36913 91.9231 4.56376 90.9569 4.56376C90.1978 4.56376 89.5077 5.16779 89.5077 6.24161C89.5767 7.31544 90.1288 7.98658 90.9569 7.98658Z" fill="white"/>
<path d="M97.789 0.939378H96.6158V0.0668945H99.9283V0.939378H98.8242V3.62394H97.789V0.939378ZM100.342 0.0668945H101.309L101.93 1.47629C101.999 1.61052 102.068 1.81186 102.068 1.81186C102.068 1.81186 102.137 1.61052 102.206 1.47629L102.827 0.0668945H103.793L104.069 3.62394H103.034L102.965 2.28166C102.965 2.14743 102.965 2.0132 102.965 2.0132L102.551 3.01991H101.723L101.309 2.0132C101.309 2.0132 101.309 2.14743 101.309 2.28166L101.24 3.62394H100.066L100.342 0.0668945Z" fill="white"/>
</g>
<defs>
<clipPath id="clip0">
<rect width="104" height="10" fill="white"/>
</clipPath>
</defs>
</svg>
