<svg width="91" height="29" viewBox="0 0 91 29" fill="none" xmlns="http://www.w3.org/2000/svg">
<g clip-path="url(#clip0)">
<path d="M30.3464 0H13.342C6.00388 0 0 6.03947 0 13.4211V13.8289V29.0066H30.3464C37.6845 29.0066 43.6884 22.9671 43.6884 15.5855V13.4211C43.6818 6.03947 37.6845 0 30.3464 0Z" fill="#8EC640"/>
<path d="M13.4597 17.6713C13.7279 17.5134 13.9306 17.6055 14.0483 17.7831L14.9966 19.5529C15.0882 19.7371 15.0228 19.941 14.8397 20.0726C14.0025 20.6844 12.4264 21.1384 10.9352 21.1384C9.17589 21.1384 7.77629 20.6187 6.80181 19.6844C5.76192 18.7108 5.19946 17.2568 5.19946 15.5529C5.19946 13.941 5.83386 12.5989 6.78219 11.6515C7.68473 10.7634 8.97314 10.2437 10.5951 10.2437C12.5833 10.2437 13.9371 10.9673 14.7481 12.1252C15.4675 13.191 15.7422 14.6187 15.5853 16.2305C15.5591 16.4608 15.4021 16.6384 15.1798 16.6384H9.04509C9.15627 17.1384 9.35901 17.5002 9.65332 17.77C10.013 18.1121 10.5755 18.2897 11.236 18.2897C12.0601 18.3029 12.7337 18.0989 13.4597 17.6713ZM12.1059 14.4476C12.0601 14.0858 11.9947 13.8094 11.7462 13.52C11.4977 13.2239 11.1118 13.066 10.6147 13.066C10.1635 13.066 9.71218 13.2042 9.46366 13.4739C9.23475 13.7239 9.10395 14.0397 9.03201 14.4476H12.1059Z" fill="white"/>
<path d="M24.6499 17.4871C24.918 17.3292 25.147 17.395 25.2385 17.5989L26.2784 19.5529C26.37 19.7371 26.298 19.941 26.1214 20.0726C25.2843 20.6844 23.9763 21.1384 22.4851 21.1384C20.4969 21.1384 18.9403 20.5265 17.9266 19.4147C17.0698 18.4871 16.5924 17.191 16.5924 15.6713C16.5924 14.3555 16.9979 13.2173 17.6977 12.3555C18.7834 10.9937 20.5427 10.2437 22.5701 10.2437C24.0613 10.2437 25.232 10.7173 26.0691 11.3358C26.2522 11.4739 26.3176 11.6779 26.2261 11.8555L25.1404 13.8752C25.0489 14.0792 24.7807 14.1252 24.5518 13.9871C23.852 13.5529 23.3549 13.3292 22.5897 13.3292C21.8703 13.3292 21.3275 13.5792 20.9416 13.9673C20.5361 14.395 20.3072 14.9871 20.3072 15.6713C20.3072 16.3752 20.51 16.9871 20.8958 17.4213C21.2817 17.8555 21.8442 18.1055 22.5897 18.1055C23.3876 18.0989 23.9501 17.895 24.6499 17.4871Z" fill="white"/>
<path d="M28.8487 11.6123C29.8624 10.7242 31.262 10.2505 32.7532 10.2505C34.2443 10.2505 35.6439 10.7242 36.6577 11.6123C37.763 12.54 38.4431 13.9742 38.4431 15.6979C38.4431 17.4215 37.763 18.8558 36.6577 19.7834C35.6439 20.6715 34.2443 21.1452 32.7532 21.1452C31.262 21.1452 29.8624 20.6715 28.8487 19.7834C27.7434 18.8492 27.0632 17.4215 27.0632 15.6979C27.0632 13.9676 27.7434 12.54 28.8487 11.6123ZM31.3274 17.5597C31.6871 17.9479 32.1842 18.1715 32.7466 18.1715C33.3091 18.1715 33.8062 17.9479 34.1659 17.5597C34.5714 17.1058 34.8199 16.4479 34.8199 15.6979C34.8199 14.9479 34.5714 14.29 34.1659 13.836C33.8062 13.4479 33.3091 13.2242 32.7466 13.2242C32.1842 13.2242 31.6871 13.4544 31.3274 13.836C30.9219 14.29 30.6734 14.9479 30.6734 15.6979C30.6734 16.4479 30.9219 17.1058 31.3274 17.5597Z" fill="white"/>
<path d="M77.658 0H63.2434C55.9054 0 49.9015 6.03947 49.9015 13.4145V13.4211V29.0066H77.658C84.9961 29.0066 91 22.9671 91 15.5855V13.4211C91 6.03947 84.9961 0 77.658 0Z" fill="#8EC640"/>
<path d="M56.4221 20.4146V5.862C56.4221 5.63831 56.5987 5.4541 56.8276 5.4541H59.6726C59.9015 5.4541 60.0781 5.63831 60.0781 5.862V10.4278C60.6863 10.2896 61.3403 10.2502 61.9486 10.2502C63.4136 10.2502 64.6824 10.7962 65.5849 11.7502C66.4417 12.6778 66.9583 14.0199 66.9583 15.6975C66.9583 17.0857 66.5529 18.3554 65.6699 19.3291C64.6562 20.4409 62.9819 21.1449 60.5228 21.1449C58.9401 21.1449 57.7694 21.0791 56.8211 20.8949C56.5987 20.8488 56.4221 20.6449 56.4221 20.4146ZM60.0781 18.0988C60.1239 18.0988 60.6667 18.1186 60.8694 18.1186C61.615 18.1186 62.3344 17.8686 62.7857 17.2567C63.0539 16.8686 63.237 16.3686 63.237 15.6909C63.237 14.9409 63.0081 14.3949 62.6745 14.0133C62.269 13.5594 61.7066 13.3554 61.1637 13.3554C60.8237 13.3554 60.4443 13.4015 60.0781 13.4673V18.0988Z" fill="white"/>
<path d="M68.4037 6.00008C68.4037 4.84218 69.3324 3.91455 70.4835 3.91455C71.6345 3.91455 72.5567 4.84218 72.5567 6.00008C72.5567 7.15797 71.628 8.0856 70.4835 8.0856C69.3259 8.09218 68.4037 7.15797 68.4037 6.00008ZM69.0577 10.4277H71.9027C72.1316 10.4277 72.3082 10.6119 72.3082 10.8356V20.5067C72.3082 20.7303 72.1251 20.9146 71.9027 20.9146H69.0577C68.8288 20.9146 68.6522 20.7303 68.6522 20.5067V10.8356C68.6522 10.6119 68.8288 10.4277 69.0577 10.4277Z" fill="white"/>
<path d="M75.7811 11.6118C76.7948 10.7237 78.1944 10.25 79.6856 10.25C81.1767 10.25 82.5763 10.7237 83.59 11.6118C84.6953 12.5395 85.3755 13.9737 85.3755 15.6974C85.3755 17.4211 84.6953 18.8553 83.59 19.7829C82.5763 20.6711 81.1767 21.1447 79.6856 21.1447C78.1944 21.1447 76.7948 20.6711 75.7811 19.7829C74.6758 18.8487 73.9956 17.4211 73.9956 15.6974C73.9956 13.9671 74.6758 12.5395 75.7811 11.6118ZM78.2663 17.5592C78.6261 17.9474 79.1231 18.1711 79.6856 18.1711C80.248 18.1711 80.7451 17.9474 81.1048 17.5592C81.5103 17.1053 81.7588 16.4474 81.7588 15.6974C81.7588 14.9474 81.5103 14.2895 81.1048 13.8355C80.7451 13.4474 80.248 13.2237 79.6856 13.2237C79.1231 13.2237 78.6261 13.4539 78.2663 13.8355C77.8608 14.2895 77.6123 14.9474 77.6123 15.6974C77.6123 16.4474 77.8543 17.1053 78.2663 17.5592Z" fill="white"/>
</g>
<defs>
<clipPath id="clip0">
<rect width="91" height="29" fill="white"/>
</clipPath>
</defs>
</svg>
