<?xml version="1.0" encoding="UTF-8" standalone="no"?><!DOCTYPE svg PUBLIC "-//W3C//DTD SVG 1.1//EN" "http://www.w3.org/Graphics/SVG/1.1/DTD/svg11.dtd"><svg width="100%" height="100%" viewBox="0 0 14 18" version="1.1" xmlns="http://www.w3.org/2000/svg" xmlns:xlink="http://www.w3.org/1999/xlink" xml:space="preserve" xmlns:serif="http://www.serif.com/" style="fill-rule:evenodd;clip-rule:evenodd;stroke-linejoin:round;stroke-miterlimit:2;"><path d="M7,8.166c-0.689,0 -1.25,-0.561 -1.25,-1.25c0,-0.689 0.561,-1.25 1.25,-1.25c0.689,0 1.25,0.561 1.25,1.25c0,0.689 -0.561,1.25 -1.25,1.25m0,-4.166c-1.608,0 -2.917,1.308 -2.917,2.916c0,1.609 1.309,2.917 2.917,2.917c1.608,0 2.917,-1.308 2.917,-2.917c0,-1.608 -1.309,-2.916 -2.917,-2.916m0,11.372c-1.396,-1.32 -5,-5.026 -5,-8.104c0,-2.72 2.242,-4.935 5,-4.935c2.757,0 5,2.215 5,4.935c0,3.078 -3.604,6.784 -5,8.104m0,-14.705c-3.676,0 -6.667,2.961 -6.667,6.601c0,4.563 5.874,9.65 6.124,9.864c0.157,0.134 0.35,0.201 0.543,0.201c0.193,0 0.386,-0.067 0.542,-0.201c0.25,-0.214 6.125,-5.301 6.125,-9.864c0,-3.64 -2.991,-6.601 -6.667,-6.601" style="fill:#8ec640;"/></svg>