<svg width="24" height="26" viewBox="0 0 24 26" fill="none" xmlns="http://www.w3.org/2000/svg">
<g id="Icon/Outline/menu">
<path id="Mask" fill-rule="evenodd" clip-rule="evenodd" d="M3.94824 6.9989H20.0512C20.5732 6.9989 21.0002 7.43966 21.0002 7.97848V8.08377C21.0002 8.62259 20.5732 9.06335 20.0512 9.06335H3.94824C3.42624 9.06335 3.00024 8.62259 3.00024 8.08377V7.97848C3.00024 7.43966 3.42624 6.9989 3.94824 6.9989ZM20.0512 12.16H3.94824C3.42624 12.16 3.00024 12.6008 3.00024 13.1396V13.2449C3.00024 13.7837 3.42624 14.2245 3.94824 14.2245H20.0512C20.5732 14.2245 21.0002 13.7837 21.0002 13.2449V13.1396C21.0002 12.6008 20.5732 12.16 20.0512 12.16ZM20.0512 17.3211H3.94824C3.42624 17.3211 3.00024 17.7619 3.00024 18.3007V18.406C3.00024 18.9448 3.42624 19.3856 3.94824 19.3856H20.0512C20.5732 19.3856 21.0002 18.9448 21.0002 18.406V18.3007C21.0002 17.7619 20.5732 17.3211 20.0512 17.3211Z" fill="#231F20"/>
<mask id="mask0" mask-type="alpha" maskUnits="userSpaceOnUse" x="3" y="6" width="19" height="14">
<path id="Mask_2" fill-rule="evenodd" clip-rule="evenodd" d="M3.94824 6.9989H20.0512C20.5732 6.9989 21.0002 7.43966 21.0002 7.97848V8.08377C21.0002 8.62259 20.5732 9.06335 20.0512 9.06335H3.94824C3.42624 9.06335 3.00024 8.62259 3.00024 8.08377V7.97848C3.00024 7.43966 3.42624 6.9989 3.94824 6.9989ZM20.0512 12.16H3.94824C3.42624 12.16 3.00024 12.6008 3.00024 13.1396V13.2449C3.00024 13.7837 3.42624 14.2245 3.94824 14.2245H20.0512C20.5732 14.2245 21.0002 13.7837 21.0002 13.2449V13.1396C21.0002 12.6008 20.5732 12.16 20.0512 12.16ZM20.0512 17.3211H3.94824C3.42624 17.3211 3.00024 17.7619 3.00024 18.3007V18.406C3.00024 18.9448 3.42624 19.3856 3.94824 19.3856H20.0512C20.5732 19.3856 21.0002 18.9448 21.0002 18.406V18.3007C21.0002 17.7619 20.5732 17.3211 20.0512 17.3211Z" fill="white"/>
</mask>
<g mask="url(#mask0)">
<g id="&#240;&#159;&#142;&#168; Color">
<rect id="Base" y="0.805542" width="24" height="24.7733" fill="white"/>
</g>
</g>
</g>
</svg>
