<svg width="24" height="24" viewBox="0 0 24 24" version="1.1" xmlns="http://www.w3.org/2000/svg" xmlns:xlink="http://www.w3.org/1999/xlink" xml:space="preserve" xmlns:serif="http://www.serif.com/" style="fill-rule:evenodd;clip-rule:evenodd;stroke-linejoin:round;stroke-miterlimit:2;"><path id="Mask" d="M6,12c0,-0.662 0.538,-1.2 1.2,-1.2c0.662,0 1.2,0.538 1.2,1.2c0,0.663 -0.538,1.2 -1.2,1.2c-0.662,0 -1.2,-0.537 -1.2,-1.2Zm6,-1.2c-0.663,0 -1.2,0.538 -1.2,1.2c0,0.663 0.537,1.2 1.2,1.2c0.662,0 1.2,-0.537 1.2,-1.2c0,-0.662 -0.538,-1.2 -1.2,-1.2Zm4.799,0c-0.662,0 -1.199,0.538 -1.199,1.2c0,0.663 0.537,1.2 1.199,1.2c0.663,0 1.2,-0.537 1.2,-1.2c0,-0.662 -0.537,-1.2 -1.2,-1.2Zm4.678,2.754c-0.608,3.905 -3.755,7.144 -7.654,7.875c-1.883,0.355 -3.8,0.152 -5.54,-0.584c-0.493,-0.209 -1.003,-0.315 -1.504,-0.315c-0.228,0 -0.453,0.022 -0.675,0.066l-3.375,0.675l0.676,-3.381c0.142,-0.702 0.055,-1.453 -0.248,-2.172c-0.737,-1.74 -0.939,-3.657 -0.585,-5.541c0.731,-3.899 3.968,-7.046 7.874,-7.655c3.108,-0.483 6.148,0.496 8.341,2.689c2.195,2.195 3.175,5.236 2.69,8.343Zm-0.992,-10.04c-2.742,-2.741 -6.534,-3.964 -10.408,-3.365c-4.893,0.763 -8.948,4.704 -9.864,9.585c-0.441,2.35 -0.187,4.742 0.733,6.918c0.117,0.277 0.153,0.535 0.107,0.767l-1.029,5.146c-0.08,0.393 0.044,0.8 0.328,1.083c0.227,0.228 0.533,0.352 0.849,0.352c0.078,0 0.156,-0.007 0.235,-0.023l5.139,-1.028c0.295,-0.057 0.581,0.026 0.772,0.105c2.178,0.921 4.57,1.174 6.917,0.734c4.882,-0.916 8.823,-4.972 9.586,-9.865c0.602,-3.872 -0.623,-7.667 -3.365,-10.409Z"/></svg>