<?xml version="1.0" encoding="utf-8"?>
<!-- Generator: Adobe Illustrator 23.0.2, SVG Export Plug-In . SVG Version: 6.00 Build 0)  -->
<svg version="1.1" id="Layer_1" xmlns="http://www.w3.org/2000/svg" xmlns:xlink="http://www.w3.org/1999/xlink" x="0px" y="0px"
	 viewBox="0 0 24.1 24.1" style="enable-background:new 0 0 24.1 24.1;" xml:space="preserve">
<style type="text/css">
	.st0{fill-rule:evenodd;clip-rule:evenodd;fill:#FFFFFF;}
	.st1{fill-rule:evenodd;clip-rule:evenodd;fill:#FFFFFF;filter:url(#Adobe_OpacityMaskFilter);}
	.st2{mask:url(#mask0_1_);}
	.st3{fill:#FFFFFF;}
</style>
<g>
	<path id="Mask" class="st0" d="M7,11c0-0.6,0.4-1,1-1s1,0.5,1,1s-0.4,1-1,1S7,11.6,7,11z M12,10c-0.6,0-1,0.5-1,1s0.4,1,1,1
		s1-0.5,1-1S12.6,10,12,10z M16.1,10c-0.6,0-1,0.5-1,1s0.4,1,1,1c0.6,0,1-0.5,1-1S16.6,10,16.1,10z M20,12.4
		c-0.5,3.4-3.1,6.2-6.4,6.8c-1.6,0.3-3.2,0.1-4.6-0.5c-0.4-0.2-0.8-0.3-1.3-0.3c-0.2,0-0.4,0-0.6,0.1L4.3,19l0.6-2.9
		c0.1-0.6,0-1.3-0.2-1.9C4,12.7,3.9,11.1,4.2,9.4c0.6-3.4,3.3-6.1,6.6-6.6c2.6-0.4,5.1,0.4,7,2.3C19.6,7,20.4,9.7,20,12.4z
		 M19.1,3.7c-2.3-2.4-5.5-3.4-8.7-2.9C6.3,1.4,3,4.8,2.2,9.1c-0.4,2-0.2,4.1,0.6,6c0.1,0.2,0.1,0.5,0.1,0.7L2,20.1
		c-0.1,0.3,0,0.7,0.3,0.9c0.2,0.2,0.4,0.3,0.7,0.3c0.1,0,0.1,0,0.2,0l4.3-0.9c0.2,0,0.5,0,0.6,0.1c1.8,0.8,3.8,1,5.8,0.6
		c4.1-0.8,7.4-4.3,8-8.5C22.5,9.3,21.4,6,19.1,3.7z"/>
	<defs>
		<filter id="Adobe_OpacityMaskFilter" filterUnits="userSpaceOnUse" x="0" y="0" width="24.1" height="24.1">
			<feColorMatrix  type="matrix" values="1 0 0 0 0  0 1 0 0 0  0 0 1 0 0  0 0 0 1 0"/>
		</filter>
	</defs>
	<mask maskUnits="userSpaceOnUse" x="0" y="0" width="24.1" height="24.1" id="mask0_1_">
		<path id="Mask_2_1_" class="st1" d="M7,11c0-0.6,0.4-1,1-1s1,0.5,1,1s-0.4,1-1,1S7,11.6,7,11z M12,10c-0.6,0-1,0.5-1,1s0.4,1,1,1
			s1-0.5,1-1S12.6,10,12,10z M16.1,10c-0.6,0-1,0.5-1,1s0.4,1,1,1c0.6,0,1-0.5,1-1S16.6,10,16.1,10z M20,12.4
			c-0.5,3.4-3.1,6.2-6.4,6.8c-1.6,0.3-3.2,0.1-4.6-0.5c-0.4-0.2-0.8-0.3-1.3-0.3c-0.2,0-0.4,0-0.6,0.1L4.3,19l0.6-2.9
			c0.1-0.6,0-1.3-0.2-1.9C4,12.7,3.9,11.1,4.2,9.4c0.6-3.4,3.3-6.1,6.6-6.6c2.6-0.4,5.1,0.4,7,2.3C19.6,7,20.4,9.7,20,12.4z
			 M19.1,3.7c-2.3-2.4-5.5-3.4-8.7-2.9C6.3,1.4,3,4.8,2.2,9.1c-0.4,2-0.2,4.1,0.6,6c0.1,0.2,0.1,0.5,0.1,0.7L2,20.1
			c-0.1,0.3,0,0.7,0.3,0.9c0.2,0.2,0.4,0.3,0.7,0.3c0.1,0,0.1,0,0.2,0l4.3-0.9c0.2,0,0.5,0,0.6,0.1c1.8,0.8,3.8,1,5.8,0.6
			c4.1-0.8,7.4-4.3,8-8.5C22.5,9.3,21.4,6,19.1,3.7z"/>
	</mask>
	<g class="st2">
		<g>
			<polygon id="Base" class="st3" points="0,0 24.1,0 24.1,24.1 0,24.1 			"/>
		</g>
	</g>
</g>
</svg>
