<svg width="24" height="26" viewBox="0 0 24 26" fill="none" xmlns="http://www.w3.org/2000/svg">
<g id="Icon/Outline/message-circle">
<path id="Mask" fill-rule="evenodd" clip-rule="evenodd" d="M7.0002 12.1592C7.0002 11.5894 7.4482 11.127 8.0002 11.127C8.5522 11.127 9.0002 11.5894 9.0002 12.1592C9.0002 12.729 8.5522 13.1914 8.0002 13.1914C7.4482 13.1914 7.0002 12.729 7.0002 12.1592ZM12.0002 11.127C11.4482 11.127 11.0002 11.5894 11.0002 12.1592C11.0002 12.729 11.4482 13.1914 12.0002 13.1914C12.5522 13.1914 13.0002 12.729 13.0002 12.1592C13.0002 11.5894 12.5522 11.127 12.0002 11.127ZM16.0002 11.127C15.4482 11.127 15.0002 11.5894 15.0002 12.1592C15.0002 12.729 15.4482 13.1914 16.0002 13.1914C16.5522 13.1914 17.0002 12.729 17.0002 12.1592C17.0002 11.5894 16.5522 11.127 16.0002 11.127ZM19.8986 13.4958C19.3916 16.8547 16.7686 19.6406 13.5196 20.2692C11.9506 20.5748 10.3526 20.4003 8.9026 19.7666C8.4916 19.5869 8.0666 19.4961 7.6496 19.4961C7.4596 19.4961 7.2716 19.5147 7.0866 19.5529L4.2746 20.133L4.8376 17.2252C4.9556 16.6214 4.8836 15.9752 4.6306 15.3569C4.0166 13.8602 3.8486 12.2117 4.1436 10.5911C4.7526 7.23744 7.4506 4.52992 10.7056 4.00659C13.2956 3.5906 15.8286 4.4329 17.6566 6.3198C19.4856 8.20773 20.3026 10.8234 19.8986 13.4958ZM19.0716 4.85968C16.7866 2.50209 13.6266 1.45025 10.3976 1.96533C6.3206 2.62182 2.9406 6.01164 2.1776 10.2097C1.8096 12.2308 2.0216 14.289 2.7886 16.1604C2.8856 16.3989 2.9156 16.6208 2.8776 16.82L2.0196 21.2462C1.9536 21.5848 2.0566 21.9347 2.2936 22.1783C2.4826 22.3744 2.7376 22.4807 3.0006 22.4807C3.0656 22.4807 3.1306 22.4746 3.1966 22.4611L7.4796 21.5765C7.7256 21.528 7.9636 21.5992 8.1226 21.6674C9.9376 22.4591 11.9316 22.6769 13.8876 22.298C17.9556 21.5105 21.2396 18.0215 21.8756 13.8132C22.3776 10.4822 21.3566 7.21831 19.0716 4.85968Z" fill="#231F20"/>
<mask id="mask0" mask-type="alpha" maskUnits="userSpaceOnUse" x="2" y="1" width="21" height="22">
<path id="Mask_2" fill-rule="evenodd" clip-rule="evenodd" d="M7.0002 12.1592C7.0002 11.5894 7.4482 11.127 8.0002 11.127C8.5522 11.127 9.0002 11.5894 9.0002 12.1592C9.0002 12.729 8.5522 13.1914 8.0002 13.1914C7.4482 13.1914 7.0002 12.729 7.0002 12.1592ZM12.0002 11.127C11.4482 11.127 11.0002 11.5894 11.0002 12.1592C11.0002 12.729 11.4482 13.1914 12.0002 13.1914C12.5522 13.1914 13.0002 12.729 13.0002 12.1592C13.0002 11.5894 12.5522 11.127 12.0002 11.127ZM16.0002 11.127C15.4482 11.127 15.0002 11.5894 15.0002 12.1592C15.0002 12.729 15.4482 13.1914 16.0002 13.1914C16.5522 13.1914 17.0002 12.729 17.0002 12.1592C17.0002 11.5894 16.5522 11.127 16.0002 11.127ZM19.8986 13.4958C19.3916 16.8547 16.7686 19.6406 13.5196 20.2692C11.9506 20.5748 10.3526 20.4003 8.9026 19.7666C8.4916 19.5869 8.0666 19.4961 7.6496 19.4961C7.4596 19.4961 7.2716 19.5147 7.0866 19.5529L4.2746 20.133L4.8376 17.2252C4.9556 16.6214 4.8836 15.9752 4.6306 15.3569C4.0166 13.8602 3.8486 12.2117 4.1436 10.5911C4.7526 7.23744 7.4506 4.52992 10.7056 4.00659C13.2956 3.5906 15.8286 4.4329 17.6566 6.3198C19.4856 8.20773 20.3026 10.8234 19.8986 13.4958ZM19.0716 4.85968C16.7866 2.50209 13.6266 1.45025 10.3976 1.96533C6.3206 2.62182 2.9406 6.01164 2.1776 10.2097C1.8096 12.2308 2.0216 14.289 2.7886 16.1604C2.8856 16.3989 2.9156 16.6208 2.8776 16.82L2.0196 21.2462C1.9536 21.5848 2.0566 21.9347 2.2936 22.1783C2.4826 22.3744 2.7376 22.4807 3.0006 22.4807C3.0656 22.4807 3.1306 22.4746 3.1966 22.4611L7.4796 21.5765C7.7256 21.528 7.9636 21.5992 8.1226 21.6674C9.9376 22.4591 11.9316 22.6769 13.8876 22.298C17.9556 21.5105 21.2396 18.0215 21.8756 13.8132C22.3776 10.4822 21.3566 7.21831 19.0716 4.85968Z" fill="white"/>
</mask>
<g mask="url(#mask0)">
<g id="&#240;&#159;&#142;&#168; Color">
<rect id="Base" y="0.805542" width="24" height="24.7733" fill="white"/>
</g>
</g>
</g>
</svg>
