<svg width="322" height="236" viewBox="0 0 322 236" fill="none" xmlns="http://www.w3.org/2000/svg">
<path d="M0.5 182.5L0.499978 0.499512L321.5 0.499507L321.5 182.5L0.5 182.5Z" stroke="black" stroke-opacity="0.3"/>
<g clip-path="url(#clip0)">
<path d="M147.9 178.2L162 35.6001L176.1 178.2H147.9Z" stroke="white" stroke-width="4.9493" stroke-miterlimit="10" stroke-linecap="round" stroke-linejoin="round"/>
<path d="M154.5 97.6C142.3 92.4 133 81.6 130 68.3" stroke="white" stroke-width="4.9493" stroke-miterlimit="10" stroke-linecap="round" stroke-linejoin="round"/>
<path d="M197.9 92.3999C193.8 105.5 183.5 115.8 170.4 119.9" stroke="white" stroke-width="4.9493" stroke-miterlimit="10" stroke-linecap="round" stroke-linejoin="round"/>
<path d="M186.8 52.5C184.4 64 177.3 73.7 167.5 79.6" stroke="white" stroke-width="4.9493" stroke-miterlimit="10" stroke-linecap="round" stroke-linejoin="round"/>
<path d="M160.9 2.5C152.3 2.5 145 7.5 141.6 14.8C140.3 14.6 139 14.4 137.7 14.4C124.5 14.4 114 25 114 38.1C114 38.2 114 38.3 114 38.4C102 43 93.5 54.7 93.5 68.3C93.5 78.7 98.4 87.9 106.1 93.8C104.6 96.9 103.7 100.4 103.7 104.2C103.7 117.3 114.3 127.8 127.3 127.8C128.6 127.8 129.9 127.7 131.2 127.5C134.6 135.9 141.5 142.5 150 145.6" stroke="white" stroke-width="4.9493" stroke-miterlimit="10" stroke-linecap="round" stroke-linejoin="round"/>
<path d="M160.9 2.5C169.5 2.5 176.8 7.5 180.2 14.8C181.5 14.6 182.8 14.4 184.1 14.4C197.2 14.4 207.7 25 207.7 38C207.7 38.1 207.7 38.2 207.7 38.3C219.7 43 228.2 54.6 228.2 68.3C228.2 78.7 223.3 87.9 215.6 93.8C217.1 96.9 218 100.4 218 104.2C218 117.3 207.4 127.8 194.4 127.8C193.1 127.8 191.8 127.7 190.5 127.5C187.3 135.2 181.3 141.4 173.8 144.7" stroke="white" stroke-width="4.9493" stroke-miterlimit="10" stroke-linecap="round" stroke-linejoin="round"/>
<path d="M161 2.5C160.9 2.5 160.9 2.5 161 2.5" stroke="white" stroke-width="4.9493" stroke-miterlimit="10" stroke-linecap="round" stroke-linejoin="round"/>
</g>
<path d="M70.2469 207.68C69.8869 207.68 69.6469 207.92 69.6469 208.28V214.44H61.8869V208.28C61.8869 207.92 61.6069 207.68 61.2869 207.68H57.2469C56.8869 207.68 56.6469 207.92 56.6469 208.28V225.4C56.6469 225.72 56.8869 226 57.2469 226H61.2869C61.6069 226 61.8869 225.72 61.8869 225.4V219.04H69.6469V225.4C69.6469 225.72 69.8869 226 70.2469 226H74.2469C74.6069 226 74.8469 225.72 74.8469 225.4V208.28C74.8469 207.92 74.6069 207.68 74.2469 207.68H70.2469ZM86.6053 211.4C87.5253 211.4 88.3653 211.64 88.8053 212.2C89.2053 212.68 89.3653 213.36 89.3653 214.28V214.68C87.2053 214.84 84.3253 215.16 82.1253 216.12C80.2053 217 78.8053 218.4 78.8053 220.76C78.8053 222.56 79.4853 224 80.6053 224.92C81.6853 225.88 83.2053 226.4 84.8453 226.4C86.6853 226.4 88.0853 226.12 89.7253 225.08H89.8853V225.4C89.8853 225.72 90.1653 226 90.5253 226H94.0453C94.3653 226 94.6453 225.72 94.6453 225.4V214.28C94.6453 211.96 94.0453 210.52 93.0453 209.4C91.4853 207.68 89.0853 207.32 87.2453 207.32C84.3653 207.32 81.6453 208.16 79.8053 209.32C79.4453 209.56 79.4053 209.76 79.5653 210.12L80.7253 212.64C80.9253 213.08 81.2053 213.08 81.6053 212.84C82.9653 212.08 84.7253 211.4 86.6053 211.4ZM86.5653 222.48C85.0853 222.48 83.8453 221.88 83.8453 220.6C83.8453 218.64 86.9653 218.32 89.3653 218.24V221.72C88.4453 222.28 87.4853 222.48 86.5653 222.48ZM97.8984 207.68C97.5384 207.68 97.2584 207.92 97.2584 208.28V211.72C97.2584 212.08 97.5384 212.32 97.8984 212.32H103.578V225.4C103.578 225.72 103.858 226 104.178 226H108.218C108.578 226 108.858 225.72 108.858 225.4V212.32H114.538C114.858 212.32 115.138 212.08 115.138 211.72V208.28C115.138 207.92 114.858 207.68 114.538 207.68H97.8984ZM136.731 208.52C136.851 208.16 136.851 207.68 136.251 207.68H131.731C131.171 207.68 130.891 207.84 130.731 208.32L126.811 220.68L122.131 208.32C121.971 207.84 121.651 207.68 121.131 207.68H116.211C115.611 207.68 115.571 208.16 115.731 208.52L124.091 227.28C123.531 228.28 122.931 229 122.251 229.56C121.371 230.24 120.371 230.52 119.251 230.52C118.651 230.52 118.331 230.44 118.011 230.44C117.731 230.44 117.531 230.6 117.531 230.92V234.96C117.531 235.24 117.731 235.44 118.011 235.44C121.371 235.64 124.051 234.76 126.091 232.92C127.731 231.44 128.851 229.52 129.771 227L136.731 208.52ZM144.818 211.8C145.498 211.68 146.378 211.64 147.098 211.64C148.658 211.64 149.978 212.16 150.858 213.12C151.658 214.04 152.138 215.28 152.138 216.88C152.138 218.76 151.578 220.12 150.698 220.92C149.698 221.8 148.378 222.08 147.058 222.08C146.178 222.08 145.458 221.96 144.818 221.72V211.8ZM140.138 207.96C139.738 208.08 139.538 208.32 139.538 208.68V234.76C139.538 235.12 139.778 235.4 140.138 235.4H144.218C144.538 235.4 144.818 235.12 144.818 234.76V226.08C145.698 226.32 146.578 226.4 147.618 226.4C150.418 226.4 153.338 225.52 155.218 223.4C156.538 221.88 157.378 219.76 157.378 216.88C157.378 214 156.418 211.76 154.818 210.2C152.898 208.28 149.938 207.32 146.578 207.32C144.218 207.32 141.778 207.52 140.138 207.96ZM168.051 211.4C168.971 211.4 169.811 211.64 170.251 212.2C170.651 212.68 170.811 213.36 170.811 214.28V214.68C168.651 214.84 165.771 215.16 163.571 216.12C161.651 217 160.251 218.4 160.251 220.76C160.251 222.56 160.931 224 162.051 224.92C163.131 225.88 164.651 226.4 166.291 226.4C168.131 226.4 169.531 226.12 171.171 225.08H171.331V225.4C171.331 225.72 171.611 226 171.971 226H175.491C175.811 226 176.091 225.72 176.091 225.4V214.28C176.091 211.96 175.491 210.52 174.491 209.4C172.931 207.68 170.531 207.32 168.691 207.32C165.811 207.32 163.091 208.16 161.251 209.32C160.891 209.56 160.851 209.76 161.011 210.12L162.171 212.64C162.371 213.08 162.651 213.08 163.051 212.84C164.411 212.08 166.171 211.4 168.051 211.4ZM168.011 222.48C166.531 222.48 165.291 221.88 165.291 220.6C165.291 218.64 168.411 218.32 170.811 218.24V221.72C169.891 222.28 168.931 222.48 168.011 222.48ZM187.584 212.32H193.504V225.4C193.504 225.72 193.784 226 194.104 226H198.144C198.504 226 198.744 225.72 198.744 225.4V208.28C198.744 207.92 198.504 207.68 198.144 207.68H182.944C182.624 207.68 182.344 207.96 182.344 208.28V210.44C182.344 213.96 182.184 216.92 181.504 219.68C181.024 221.4 180.344 223.08 179.304 224.76C178.864 225.56 179.144 226 179.784 226H183.104C183.784 226 184.104 225.88 184.544 225.36C185.544 224.08 186.184 222.4 186.664 220.52C187.224 218.04 187.464 215.12 187.584 212.32ZM209.232 208.28C209.232 207.92 208.952 207.68 208.632 207.68H204.552C204.192 207.68 203.952 207.92 203.952 208.28V225.4C203.952 225.72 204.192 226 204.552 226H213.472C215.552 226 217.392 225.48 218.552 224.4C219.552 223.48 220.192 222.2 220.192 220.44C220.192 218.88 219.672 217.64 218.872 216.72C217.672 215.44 215.712 214.8 213.472 214.8H209.232V208.28ZM214.992 220.44C214.992 221 214.792 221.4 214.472 221.64C213.952 222.08 213.152 222.16 212.352 222.16H209.232V218.64H212.112C213.272 218.64 214.032 218.84 214.512 219.24C214.832 219.52 214.992 219.92 214.992 220.44ZM237.942 207.68C237.582 207.68 237.342 207.92 237.342 208.28V214.44H229.582V208.28C229.582 207.92 229.302 207.68 228.982 207.68H224.942C224.582 207.68 224.342 207.92 224.342 208.28V225.4C224.342 225.72 224.582 226 224.942 226H228.982C229.302 226 229.582 225.72 229.582 225.4V219.04H237.342V225.4C237.342 225.72 237.582 226 237.942 226H241.942C242.302 226 242.542 225.72 242.542 225.4V208.28C242.542 207.92 242.302 207.68 241.942 207.68H237.942ZM251.821 216.88C251.821 213.92 253.621 211.8 256.501 211.8C259.381 211.8 261.181 213.92 261.181 216.88C261.181 219.84 259.381 221.96 256.501 221.96C253.621 221.96 251.821 219.84 251.821 216.88ZM246.621 216.88C246.621 222.84 250.981 226.4 256.501 226.4C262.021 226.4 266.421 222.84 266.421 216.88C266.421 210.92 262.021 207.32 256.501 207.32C250.981 207.32 246.621 210.92 246.621 216.88Z" fill="#8DC63F"/>
<defs>
<clipPath id="clip0">
<rect width="139.7" height="180.6" fill="white" transform="translate(91)"/>
</clipPath>
</defs>
</svg>
