<svg width="43" height="40" viewBox="0 0 43 40" fill="none" xmlns="http://www.w3.org/2000/svg">
<path fill-rule="evenodd" clip-rule="evenodd" d="M30.3726 20.0089C30.3726 20.0056 30.3744 20.0039 30.3744 20.0006C30.3744 19.9456 30.3465 19.9006 30.3413 19.8473C30.3274 19.6873 30.3065 19.5273 30.242 19.3773C30.195 19.2639 30.1149 19.1739 30.0435 19.0739C29.9895 19.0006 29.9599 18.9156 29.8937 18.8489L24.9073 13.8489C24.242 13.1823 23.1413 13.1589 22.4446 13.7939C21.7497 14.4289 21.7236 15.4839 22.3872 16.1506L24.5642 18.3339H14.6995C13.7381 18.3339 12.9578 19.0789 12.9578 20.0006C12.9578 20.9206 13.7381 21.6673 14.6995 21.6673H24.4284L22.1764 23.8223C21.4954 24.4723 21.4954 25.5273 22.1764 26.1789C22.516 26.5039 22.9619 26.6673 23.4078 26.6673C23.8536 26.6673 24.2995 26.5039 24.6391 26.1789L29.8641 21.1789C30.0226 21.0273 30.1515 20.8439 30.2385 20.6423C30.3274 20.4406 30.3709 20.2256 30.3726 20.0089ZM21.6661 33.3333C13.9837 33.3333 7.73288 27.3516 7.73288 19.9999C7.73288 12.6483 13.9837 6.66659 21.6661 6.66659C29.3486 6.66659 35.5994 12.6483 35.5994 19.9999C35.5994 27.3516 29.3486 33.3333 21.6661 33.3333ZM21.6661 3.33325C12.0626 3.33325 4.24957 10.8099 4.24957 19.9999C4.24957 29.1899 12.0626 36.6666 21.6661 36.6666C31.2696 36.6666 39.0827 29.1899 39.0827 19.9999C39.0827 10.8099 31.2696 3.33325 21.6661 3.33325Z" fill="#231F20"/>
<mask id="mask0" mask-type="alpha" maskUnits="userSpaceOnUse" x="4" y="3" width="36" height="34">
<path fill-rule="evenodd" clip-rule="evenodd" d="M30.3726 20.0089C30.3726 20.0056 30.3744 20.0039 30.3744 20.0006C30.3744 19.9456 30.3465 19.9006 30.3413 19.8473C30.3274 19.6873 30.3065 19.5273 30.242 19.3773C30.195 19.2639 30.1149 19.1739 30.0435 19.0739C29.9895 19.0006 29.9599 18.9156 29.8937 18.8489L24.9073 13.8489C24.242 13.1823 23.1413 13.1589 22.4446 13.7939C21.7497 14.4289 21.7236 15.4839 22.3872 16.1506L24.5642 18.3339H14.6995C13.7381 18.3339 12.9578 19.0789 12.9578 20.0006C12.9578 20.9206 13.7381 21.6673 14.6995 21.6673H24.4284L22.1764 23.8223C21.4954 24.4723 21.4954 25.5273 22.1764 26.1789C22.516 26.5039 22.9619 26.6673 23.4078 26.6673C23.8536 26.6673 24.2995 26.5039 24.6391 26.1789L29.8641 21.1789C30.0226 21.0273 30.1515 20.8439 30.2385 20.6423C30.3274 20.4406 30.3709 20.2256 30.3726 20.0089ZM21.6661 33.3333C13.9837 33.3333 7.73288 27.3516 7.73288 19.9999C7.73288 12.6483 13.9837 6.66659 21.6661 6.66659C29.3486 6.66659 35.5994 12.6483 35.5994 19.9999C35.5994 27.3516 29.3486 33.3333 21.6661 33.3333ZM21.6661 3.33325C12.0626 3.33325 4.24957 10.8099 4.24957 19.9999C4.24957 29.1899 12.0626 36.6666 21.6661 36.6666C31.2696 36.6666 39.0827 29.1899 39.0827 19.9999C39.0827 10.8099 31.2696 3.33325 21.6661 3.33325Z" fill="white"/>
</mask>
<g mask="url(#mask0)">
<rect x="0.766235" width="41.7997" height="40" fill="white"/>
</g>
</svg>
