<?xml version="1.0" encoding="UTF-8" standalone="no"?><!DOCTYPE svg PUBLIC "-//W3C//DTD SVG 1.1//EN" "http://www.w3.org/Graphics/SVG/1.1/DTD/svg11.dtd"><svg width="100%" height="100%" viewBox="0 0 18 18" version="1.1" xmlns="http://www.w3.org/2000/svg" xmlns:xlink="http://www.w3.org/1999/xlink" xml:space="preserve" xmlns:serif="http://www.serif.com/" style="fill-rule:evenodd;clip-rule:evenodd;stroke-linejoin:round;stroke-miterlimit:2;"><path d="M4.5,2.333c-1.195,0 -2.167,0.972 -2.167,2.167c0,6.157 5.01,11.167 11.167,11.167c1.194,0 2.167,-0.972 2.167,-2.167c0,-0.092 -0.006,-0.183 -0.018,-0.273l-3.85,-0.884c-0.076,0.147 -0.161,0.306 -0.237,0.455c-0.38,0.725 -0.655,1.251 -1.357,0.969c-2.755,-0.967 -5.004,-3.217 -5.983,-6.005c-0.298,-0.654 0.269,-0.951 0.987,-1.326c0.146,-0.077 0.304,-0.159 0.448,-0.234l-0.884,-3.851c-0.092,-0.012 -0.182,-0.018 -0.273,-0.018m9,15c-7.077,0 -12.833,-5.756 -12.833,-12.833c0,-2.114 1.719,-3.833 3.833,-3.833c0.217,0 0.431,0.018 0.638,0.054c0.203,0.032 0.406,0.084 0.605,0.152c0.27,0.095 0.475,0.322 0.539,0.602l1.141,4.97c0.063,0.273 -0.016,0.56 -0.211,0.763c-0.114,0.119 -0.116,0.121 -1.149,0.662c0.836,1.812 2.29,3.261 4.065,4.069c0.542,-1.034 0.545,-1.037 0.664,-1.151c0.203,-0.195 0.491,-0.27 0.763,-0.21l4.971,1.14c0.279,0.065 0.507,0.268 0.6,0.539c0.068,0.196 0.12,0.4 0.154,0.609c0.035,0.206 0.053,0.419 0.053,0.634c0,2.114 -1.72,3.833 -3.833,3.833" style="fill:#8ec640;"/></svg>