<svg width="322" height="236" viewBox="0 0 322 236" fill="none" xmlns="http://www.w3.org/2000/svg">
<path d="M0.5 182.5L0.49999 0.500015L321.5 0.500004L321.5 182.5L0.5 182.5Z" stroke="black" stroke-opacity="0.3"/>
<g clip-path="url(#clip0)">
<path d="M193.2 136.4C193.2 136.4 172.5 138.4 170.5 121.3C168.8 107.2 185.9 9.5999 185.9 9.5999C185.9 9.5999 187.3 5.0999 191.7 4.3999H193.3C197.7 4.9999 199.1 9.5999 199.1 9.5999C199.1 9.5999 216.2 107.2 214.6 121.3C212.6 138.4 191.9 136.4 191.9 136.4H193.2Z" stroke="white" stroke-width="4.9493" stroke-miterlimit="10" stroke-linecap="round" stroke-linejoin="round"/>
<path d="M198.2 139.1V180.2H186.9V139.1" stroke="white" stroke-width="4.9493" stroke-miterlimit="10" stroke-linecap="round" stroke-linejoin="round"/>
<path d="M186.6 150.8L178.6 177L167.8 173.7L179.8 134.4" stroke="white" stroke-width="4.9493" stroke-miterlimit="10" stroke-linecap="round" stroke-linejoin="round"/>
<path d="M198.6 150.8L206.6 177L217.4 173.7L205.3 134.4" stroke="white" stroke-width="4.9493" stroke-miterlimit="10" stroke-linecap="round" stroke-linejoin="round"/>
<path d="M180.6 113.8H172.7" stroke="white" stroke-width="4.9493" stroke-miterlimit="10" stroke-linecap="round" stroke-linejoin="round"/>
<path d="M194.7 95.5H186.7" stroke="white" stroke-width="4.9493" stroke-miterlimit="10" stroke-linecap="round" stroke-linejoin="round"/>
<path d="M211.6 106.8H203.6" stroke="white" stroke-width="4.9493" stroke-miterlimit="10" stroke-linecap="round" stroke-linejoin="round"/>
<path d="M187 72.2998H179" stroke="white" stroke-width="4.9493" stroke-miterlimit="10" stroke-linecap="round" stroke-linejoin="round"/>
<path d="M187.7 45.2H180.5" stroke="white" stroke-width="4.9493" stroke-miterlimit="10" stroke-linecap="round" stroke-linejoin="round"/>
<path d="M201.2 29.7H193.3" stroke="white" stroke-width="4.9493" stroke-miterlimit="10" stroke-linecap="round" stroke-linejoin="round"/>
<path d="M206.4 65.5999H198.4" stroke="white" stroke-width="4.9493" stroke-miterlimit="10" stroke-linecap="round" stroke-linejoin="round"/>
<path d="M129.6 48.3C129.6 48.3 150.3 46.3001 152.3 63.4001C154 77.4001 136.9 175 136.9 175C136.9 175 135.5 179.5 131.1 180.2H129.5C125.1 179.6 123.7 175 123.7 175C123.7 175 106.5 77.4 108.1 63.3C110.1 46.2 130.8 48.2001 130.8 48.2001H129.6V48.3Z" stroke="white" stroke-width="4.9493" stroke-miterlimit="10" stroke-linecap="round" stroke-linejoin="round"/>
<path d="M124.7 45.6V4.5H135.9V45.6" stroke="white" stroke-width="4.9493" stroke-miterlimit="10" stroke-linecap="round" stroke-linejoin="round"/>
<path d="M136.3 33.9L144.3 7.69995L155 11L143 50.2999" stroke="white" stroke-width="4.9493" stroke-miterlimit="10" stroke-linecap="round" stroke-linejoin="round"/>
<path d="M124.3 33.9L116.2 7.69995L105.5 11L117.5 50.2999" stroke="white" stroke-width="4.9493" stroke-miterlimit="10" stroke-linecap="round" stroke-linejoin="round"/>
<path d="M142.2 70.8H150.2" stroke="white" stroke-width="4.9493" stroke-miterlimit="10" stroke-linecap="round" stroke-linejoin="round"/>
<path d="M128.1 89.1001H136.1" stroke="white" stroke-width="4.9493" stroke-miterlimit="10" stroke-linecap="round" stroke-linejoin="round"/>
<path d="M111.3 77.8999H119.2" stroke="white" stroke-width="4.9493" stroke-miterlimit="10" stroke-linecap="round" stroke-linejoin="round"/>
<path d="M135.9 112.3H143.8" stroke="white" stroke-width="4.9493" stroke-miterlimit="10" stroke-linecap="round" stroke-linejoin="round"/>
<path d="M135.2 139.5H142.2" stroke="white" stroke-width="4.9493" stroke-miterlimit="10" stroke-linecap="round" stroke-linejoin="round"/>
<path d="M121.6 154.9H129.6" stroke="white" stroke-width="4.9493" stroke-miterlimit="10" stroke-linecap="round" stroke-linejoin="round"/>
<path d="M116.4 119.1H124.4" stroke="white" stroke-width="4.9493" stroke-miterlimit="10" stroke-linecap="round" stroke-linejoin="round"/>
</g>
<path d="M88.4305 207.68C88.0705 207.68 87.8305 207.92 87.8305 208.28V225.4C87.8305 225.72 88.0705 226 88.4305 226H92.4705C92.7905 226 93.0705 225.72 93.0705 225.4V212.32H100.39V225.4C100.39 225.72 100.63 226 100.99 226H104.99C105.35 226 105.59 225.72 105.59 225.4V208.28C105.59 207.92 105.35 207.68 104.99 207.68H88.4305ZM114.879 216.88C114.879 213.92 116.679 211.8 119.559 211.8C122.439 211.8 124.239 213.92 124.239 216.88C124.239 219.84 122.439 221.96 119.559 221.96C116.679 221.96 114.879 219.84 114.879 216.88ZM109.679 216.88C109.679 222.84 114.039 226.4 119.559 226.4C125.079 226.4 129.479 222.84 129.479 216.88C129.479 210.92 125.079 207.32 119.559 207.32C114.039 207.32 109.679 210.92 109.679 216.88ZM140.252 212.32H146.172V225.4C146.172 225.72 146.452 226 146.772 226H150.812C151.172 226 151.412 225.72 151.412 225.4V208.28C151.412 207.92 151.172 207.68 150.812 207.68H135.612C135.292 207.68 135.012 207.96 135.012 208.28V210.44C135.012 213.96 134.852 216.92 134.172 219.68C133.692 221.4 133.012 223.08 131.972 224.76C131.532 225.56 131.812 226 132.452 226H135.772C136.452 226 136.772 225.88 137.212 225.36C138.212 224.08 138.852 222.4 139.332 220.52C139.892 218.04 140.132 215.12 140.252 212.32ZM161.06 214.96C161.18 214.04 161.5 213.2 162.06 212.56C162.66 211.88 163.74 211.48 164.94 211.48C166.1 211.48 167.06 211.92 167.66 212.56C168.22 213.24 168.5 214 168.54 214.96H161.06ZM165.86 222.2C164.38 222.2 163.1 221.72 162.3 220.88C161.66 220.24 161.3 219.48 161.1 218.44H173.06C173.42 218.44 173.66 218.2 173.66 217.84C173.7 215.04 173.3 212.32 171.98 210.52C170.54 208.56 168.22 207.32 164.9 207.32C162.02 207.32 159.74 208.28 158.18 209.88C156.54 211.56 155.5 213.88 155.5 216.64C155.5 219.56 156.46 222.04 158.18 223.72C159.9 225.44 162.38 226.4 165.46 226.4C168.14 226.4 170.86 225.56 172.34 224.52C172.62 224.32 172.74 224 172.62 223.72L171.22 221.12C171.06 220.8 170.74 220.72 170.3 220.96C168.98 221.72 167.62 222.2 165.86 222.2ZM182.675 226.4C185.075 226.4 186.915 225.84 188.155 224.88C189.395 223.92 190.075 222.56 190.075 221C190.075 218.92 188.995 217.28 186.835 216.4C188.555 215.48 189.275 214.24 189.235 212.48C189.235 211.12 188.595 209.8 187.475 208.84C186.395 207.92 184.795 207.32 182.755 207.32C180.515 207.32 178.395 208 176.675 209C176.395 209.16 176.275 209.52 176.395 209.8L177.635 212.4C177.795 212.72 178.155 212.8 178.395 212.64C179.675 211.92 180.875 211.48 182.275 211.48C182.835 211.48 183.315 211.6 183.715 211.84C184.115 212.12 184.355 212.6 184.355 213.04C184.355 213.8 183.835 214.32 183.075 214.56C182.395 214.8 181.515 214.8 180.835 214.8H179.795C179.435 214.8 179.195 215.08 179.195 215.4V217.96C179.195 218.32 179.435 218.56 179.795 218.56H181.155C181.995 218.56 182.755 218.6 183.355 218.8C184.315 219.08 184.995 219.64 184.995 220.56C184.995 221.16 184.715 221.68 184.155 222C183.675 222.32 183.035 222.52 182.235 222.52C180.755 222.52 179.435 221.96 178.195 221.24C177.915 221.08 177.555 221.16 177.395 221.48L176.195 224.08C176.035 224.36 176.155 224.76 176.435 224.88C178.195 225.92 180.155 226.4 182.675 226.4ZM207.759 207.68C207.399 207.68 207.159 207.92 207.159 208.28V214.44H199.399V208.28C199.399 207.92 199.119 207.68 198.799 207.68H194.759C194.399 207.68 194.159 207.92 194.159 208.28V225.4C194.159 225.72 194.399 226 194.759 226H198.799C199.119 226 199.399 225.72 199.399 225.4V219.04H207.159V225.4C207.159 225.72 207.399 226 207.759 226H211.759C212.119 226 212.359 225.72 212.359 225.4V208.28C212.359 207.92 212.119 207.68 211.759 207.68H207.759ZM221.637 216.88C221.637 213.92 223.437 211.8 226.317 211.8C229.197 211.8 230.997 213.92 230.997 216.88C230.997 219.84 229.197 221.96 226.317 221.96C223.437 221.96 221.637 219.84 221.637 216.88ZM216.437 216.88C216.437 222.84 220.797 226.4 226.317 226.4C231.837 226.4 236.237 222.84 236.237 216.88C236.237 210.92 231.837 207.32 226.317 207.32C220.797 207.32 216.437 210.92 216.437 216.88Z" fill="#8DC63F"/>
<defs>
<clipPath id="clip0">
<rect width="116.8" height="180.7" fill="white" transform="translate(103 2)"/>
</clipPath>
</defs>
</svg>
