<svg width="322" height="236" viewBox="0 0 322 236" fill="none" xmlns="http://www.w3.org/2000/svg">
<path d="M0.5 182.5L0.499978 0.499756L321.5 0.499751L321.5 182.5L0.5 182.5Z" stroke="black" stroke-opacity="0.3"/>
<g clip-path="url(#clip0)">
<path d="M143.9 98.9C143.9 98.9 142 93.6 143.2 85.7C144.7 76 157.4 43.5 157.6 27C157.8 10.3 142.9 6.7 137 6.5C124 6.5 118.4 16.6 118.4 16.6L90.5 25L120.4 27.6C120.4 27.6 126.8 35.8 138 33.6C137.4 36.7 136 50.1 129.6 71.8C124 91 120.7 102.9 118.7 111.3C114.8 127.3 121.1 156.5 160.7 158.1C237.1 166.3 231 97.6 231 97.6C231 97.6 217.6 102 211 102.3C200.3 102.8 201.9 93.2 180.3 91.1C158.7 89.1 143.9 98.9 143.9 98.9Z" stroke="white" stroke-width="4.9493" stroke-miterlimit="10" stroke-linecap="round" stroke-linejoin="round"/>
<path d="M152.1 121.7C152.1 121.7 161.1 131.8 174.4 130.9C189.1 129.8 194.4 121.7 195.5 117.8C190.1 114 187.4 111.8 185.6 107.4C187.4 106.9 198.4 107.1 203.5 101.7" stroke="white" stroke-width="4.9493" stroke-miterlimit="10" stroke-linecap="round" stroke-linejoin="round"/>
<path d="M181.5 160.8V176.6H162.9" stroke="white" stroke-width="4.9493" stroke-miterlimit="10" stroke-linecap="round" stroke-linejoin="round"/>
<path d="M169.6 160.8V176.6H151" stroke="white" stroke-width="4.9493" stroke-miterlimit="10" stroke-linecap="round" stroke-linejoin="round"/>
</g>
<path d="M65.5984 207.68C65.2384 207.68 64.9984 207.92 64.9984 208.28V225.4C64.9984 225.72 65.2384 226 65.5984 226H69.6384C69.9584 226 70.2384 225.72 70.2384 225.4V212.32H77.5584V225.4C77.5584 225.72 77.7984 226 78.1584 226H82.1584C82.5184 226 82.7584 225.72 82.7584 225.4V208.28C82.7584 207.92 82.5184 207.68 82.1584 207.68H65.5984ZM93.2472 211.8C93.9272 211.68 94.8072 211.64 95.5272 211.64C97.0872 211.64 98.4072 212.16 99.2872 213.12C100.087 214.04 100.567 215.28 100.567 216.88C100.567 218.76 100.007 220.12 99.1272 220.92C98.1272 221.8 96.8072 222.08 95.4872 222.08C94.6072 222.08 93.8872 221.96 93.2472 221.72V211.8ZM88.5672 207.96C88.1672 208.08 87.9672 208.32 87.9672 208.68V234.76C87.9672 235.12 88.2072 235.4 88.5672 235.4H92.6472C92.9672 235.4 93.2472 235.12 93.2472 234.76V226.08C94.1272 226.32 95.0072 226.4 96.0472 226.4C98.8472 226.4 101.767 225.52 103.647 223.4C104.967 221.88 105.807 219.76 105.807 216.88C105.807 214 104.847 211.76 103.247 210.2C101.327 208.28 98.3672 207.32 95.0072 207.32C92.6472 207.32 90.2072 207.52 88.5672 207.96ZM116.48 211.4C117.4 211.4 118.24 211.64 118.68 212.2C119.08 212.68 119.24 213.36 119.24 214.28V214.68C117.08 214.84 114.2 215.16 112 216.12C110.08 217 108.68 218.4 108.68 220.76C108.68 222.56 109.36 224 110.48 224.92C111.56 225.88 113.08 226.4 114.72 226.4C116.56 226.4 117.96 226.12 119.6 225.08H119.76V225.4C119.76 225.72 120.04 226 120.4 226H123.92C124.24 226 124.52 225.72 124.52 225.4V214.28C124.52 211.96 123.92 210.52 122.92 209.4C121.36 207.68 118.96 207.32 117.12 207.32C114.24 207.32 111.52 208.16 109.68 209.32C109.32 209.56 109.28 209.76 109.44 210.12L110.6 212.64C110.8 213.08 111.08 213.08 111.48 212.84C112.84 212.08 114.6 211.4 116.48 211.4ZM116.44 222.48C114.96 222.48 113.72 221.88 113.72 220.6C113.72 218.64 116.84 218.32 119.24 218.24V221.72C118.32 222.28 117.36 222.48 116.44 222.48ZM139.413 226C142.453 226 145.573 224.52 145.573 221C145.573 218.6 144.413 216.96 141.733 216.36V216.24C143.213 215.56 144.053 214.2 144.053 212.36C144.053 210.76 143.333 209.6 142.293 208.84C140.933 207.84 139.333 207.68 137.813 207.68H129.973C129.613 207.68 129.373 207.92 129.373 208.28V225.4C129.373 225.72 129.613 226 129.973 226H139.413ZM138.973 213.2C138.973 214.04 138.533 214.48 137.973 214.76C137.493 214.96 136.933 214.96 136.453 214.96H134.453V211.36H136.693C137.213 211.36 137.773 211.48 138.173 211.72C138.653 212.04 138.973 212.48 138.973 213.2ZM140.333 220.32C140.333 221.28 139.813 221.84 139.053 222.12C138.573 222.28 137.933 222.36 137.333 222.36H134.453V218.28H136.813C137.853 218.28 138.573 218.32 139.093 218.56C139.973 218.92 140.333 219.56 140.333 220.32ZM168.405 208.28C168.405 207.92 168.125 207.68 167.805 207.68H163.725C163.365 207.68 163.125 207.92 163.125 208.28V210.48L155.005 217.76V208.28C155.005 207.92 154.725 207.68 154.405 207.68H150.325C149.965 207.68 149.725 207.92 149.725 208.28V225.4C149.725 225.72 149.965 226 150.325 226H154.405C154.725 226 155.005 225.72 155.005 225.4V223.24L163.125 216V225.4C163.125 225.72 163.365 226 163.725 226H167.805C168.125 226 168.405 225.72 168.405 225.4V208.28ZM180.232 212.32H186.152V225.4C186.152 225.72 186.432 226 186.752 226H190.792C191.152 226 191.392 225.72 191.392 225.4V208.28C191.392 207.92 191.152 207.68 190.792 207.68H175.592C175.272 207.68 174.992 207.96 174.992 208.28V210.44C174.992 213.96 174.832 216.92 174.152 219.68C173.672 221.4 172.992 223.08 171.952 224.76C171.512 225.56 171.792 226 172.432 226H175.752C176.432 226 176.752 225.88 177.192 225.36C178.192 224.08 178.832 222.4 179.312 220.52C179.872 218.04 180.112 215.12 180.232 212.32ZM201.88 208.28C201.88 207.92 201.6 207.68 201.28 207.68H197.2C196.84 207.68 196.6 207.92 196.6 208.28V225.4C196.6 225.72 196.84 226 197.2 226H206.12C208.2 226 210.04 225.48 211.2 224.4C212.2 223.48 212.84 222.2 212.84 220.44C212.84 218.88 212.32 217.64 211.52 216.72C210.32 215.44 208.36 214.8 206.12 214.8H201.88V208.28ZM207.64 220.44C207.64 221 207.44 221.4 207.12 221.64C206.6 222.08 205.8 222.16 205 222.16H201.88V218.64H204.76C205.92 218.64 206.68 218.84 207.16 219.24C207.48 219.52 207.64 219.92 207.64 220.44ZM230.591 207.68C230.231 207.68 229.991 207.92 229.991 208.28V214.44H222.231V208.28C222.231 207.92 221.951 207.68 221.631 207.68H217.591C217.231 207.68 216.991 207.92 216.991 208.28V225.4C216.991 225.72 217.231 226 217.591 226H221.631C221.951 226 222.231 225.72 222.231 225.4V219.04H229.991V225.4C229.991 225.72 230.231 226 230.591 226H234.591C234.951 226 235.191 225.72 235.191 225.4V208.28C235.191 207.92 234.951 207.68 234.591 207.68H230.591ZM244.469 216.88C244.469 213.92 246.269 211.8 249.149 211.8C252.029 211.8 253.829 213.92 253.829 216.88C253.829 219.84 252.029 221.96 249.149 221.96C246.269 221.96 244.469 219.84 244.469 216.88ZM239.269 216.88C239.269 222.84 243.629 226.4 249.149 226.4C254.669 226.4 259.069 222.84 259.069 216.88C259.069 210.92 254.669 207.32 249.149 207.32C243.629 207.32 239.269 210.92 239.269 216.88Z" fill="#8DC63F"/>
<defs>
<clipPath id="clip0">
<rect width="145.5" height="175.1" fill="white" transform="translate(88 4)"/>
</clipPath>
</defs>
</svg>
