<svg width="43" height="40" viewBox="0 0 43 40" fill="none" xmlns="http://www.w3.org/2000/svg">
<path fill-rule="evenodd" clip-rule="evenodd" d="M28.5052 18.3332H18.6405L20.8176 16.1499C21.4811 15.4849 21.455 14.4299 20.7601 13.7932C20.0634 13.1599 18.9627 13.1832 18.2974 13.8499L13.311 18.8499C13.2449 18.9166 13.2152 18.9999 13.1613 19.0749C13.0898 19.1732 13.0097 19.2632 12.9627 19.3766C12.8983 19.5282 12.8774 19.6866 12.8634 19.8482C12.8582 19.8999 12.8303 19.9466 12.8303 19.9999C12.8303 20.0032 12.8321 20.0049 12.8321 20.0082C12.8338 20.2249 12.8774 20.4399 12.9662 20.6432C13.0533 20.8449 13.1822 21.0266 13.3406 21.1799L18.5656 26.1782C18.9052 26.5033 19.3511 26.6666 19.797 26.6666C20.2428 26.6666 20.6887 26.5033 21.0283 26.1782C21.7093 25.5266 21.7093 24.4732 21.0283 23.8216L18.7763 21.6666H28.5052C29.4666 21.6666 30.2469 20.9199 30.2469 19.9999C30.2469 19.0799 29.4666 18.3332 28.5052 18.3332ZM21.5386 33.3332C13.8562 33.3332 7.60538 27.3516 7.60538 19.9999C7.60538 12.6482 13.8562 6.66657 21.5386 6.66657C29.2211 6.66657 35.4718 12.6482 35.4718 19.9999C35.4718 27.3516 29.2211 33.3332 21.5386 33.3332ZM21.5386 3.33325C11.9351 3.33325 4.12207 10.8099 4.12207 19.9999C4.12207 29.1899 11.9351 36.6666 21.5386 36.6666C31.1421 36.6666 38.9552 29.1899 38.9552 19.9999C38.9552 10.8099 31.1421 3.33325 21.5386 3.33325Z" fill="#231F20"/>
<mask id="mask0" mask-type="alpha" maskUnits="userSpaceOnUse" x="4" y="3" width="35" height="34">
<path fill-rule="evenodd" clip-rule="evenodd" d="M28.5052 18.3332H18.6405L20.8176 16.1499C21.4811 15.4849 21.455 14.4299 20.7601 13.7932C20.0634 13.1599 18.9627 13.1832 18.2974 13.8499L13.311 18.8499C13.2449 18.9166 13.2152 18.9999 13.1613 19.0749C13.0898 19.1732 13.0097 19.2632 12.9627 19.3766C12.8983 19.5282 12.8774 19.6866 12.8634 19.8482C12.8582 19.8999 12.8303 19.9466 12.8303 19.9999C12.8303 20.0032 12.8321 20.0049 12.8321 20.0082C12.8338 20.2249 12.8774 20.4399 12.9662 20.6432C13.0533 20.8449 13.1822 21.0266 13.3406 21.1799L18.5656 26.1782C18.9052 26.5033 19.3511 26.6666 19.797 26.6666C20.2428 26.6666 20.6887 26.5033 21.0283 26.1782C21.7093 25.5266 21.7093 24.4732 21.0283 23.8216L18.7763 21.6666H28.5052C29.4666 21.6666 30.2469 20.9199 30.2469 19.9999C30.2469 19.0799 29.4666 18.3332 28.5052 18.3332ZM21.5386 33.3332C13.8562 33.3332 7.60538 27.3516 7.60538 19.9999C7.60538 12.6482 13.8562 6.66657 21.5386 6.66657C29.2211 6.66657 35.4718 12.6482 35.4718 19.9999C35.4718 27.3516 29.2211 33.3332 21.5386 33.3332ZM21.5386 3.33325C11.9351 3.33325 4.12207 10.8099 4.12207 19.9999C4.12207 29.1899 11.9351 36.6666 21.5386 36.6666C31.1421 36.6666 38.9552 29.1899 38.9552 19.9999C38.9552 10.8099 31.1421 3.33325 21.5386 3.33325Z" fill="white"/>
</mask>
<g mask="url(#mask0)">
<rect x="0.638794" width="41.7997" height="40" fill="white"/>
</g>
</svg>
