<svg width="355" height="429" viewBox="0 0 355 429" fill="none" xmlns="http://www.w3.org/2000/svg">
<path d="M18.894 194.47C23.359 194.47 26.414 193.436 28.905 192.167C29.328 191.979 29.422 191.697 29.234 191.274L27.072 186.668C26.884 186.245 26.649 186.245 26.226 186.433C24.205 187.514 21.855 188.313 18.941 188.313C13.301 188.313 8.977 184.083 8.977 177.973C8.977 172.098 13.489 167.68 18.894 167.68C21.808 167.68 23.97 168.573 25.944 169.56C26.32 169.748 26.696 169.701 26.884 169.278L29.046 164.766C29.234 164.39 29.187 164.061 28.717 163.779C26.508 162.651 23.547 161.57 19.035 161.57C9.447 161.57 1.88 168.62 1.88 177.973C1.88 188.078 8.554 194.47 18.894 194.47ZM31.833 161.993C31.457 161.993 31.128 162.322 31.128 162.698V167.304C31.128 167.68 31.457 168.009 31.833 168.009H41.421L41.421 193.295C41.421 193.671 41.75 194 42.126 194H47.484C47.86 194 48.189 193.671 48.189 193.295L48.189 168.009H57.777C58.2 168.009 58.529 167.68 58.529 167.304V162.698C58.529 162.322 58.2 161.993 57.777 161.993H31.833ZM80.7897 173.179C80.7897 175.341 79.9907 176.798 78.6747 177.597C77.6877 178.255 76.3717 178.443 75.0557 178.443H68.8047V167.915H75.1967C76.5597 167.915 77.7347 168.197 78.7687 168.855C79.9907 169.654 80.7897 171.064 80.7897 173.179ZM62.7887 161.993C62.3657 161.993 62.0367 162.322 62.0367 162.698L62.0367 193.295C62.0367 193.671 62.3657 194 62.7887 194H68.0997C68.5227 194 68.8047 193.671 68.8047 193.295V184.365H76.0897C78.6277 184.365 81.1657 183.942 83.4217 182.203C86.0067 180.229 87.6517 177.033 87.6517 173.179C87.6517 169.419 86.1477 166.364 83.7507 164.39C81.4477 162.51 78.7687 161.993 76.0897 161.993H62.7887ZM98.4375 187.514L110.046 187.514L111.973 193.201C112.114 193.765 112.49 194 113.148 194H118.553C119.023 194 119.211 193.765 119.211 193.436C119.211 193.295 119.164 193.154 119.117 192.966L108.307 162.604C108.166 162.04 107.79 161.852 107.179 161.852H101.586C100.975 161.852 100.599 162.04 100.458 162.604L89.5075 192.966C89.4605 193.154 89.4135 193.295 89.4135 193.436C89.4135 193.765 89.6015 194 90.0715 194H95.3355C95.9465 194 96.3225 193.765 96.5105 193.201L98.4375 187.514ZM108.401 182.109H100.129L104.312 170.077L108.401 182.109ZM144.528 161.993C144.152 161.993 143.823 162.322 143.823 162.698V174.918H129.253V162.698C129.253 162.322 128.971 161.993 128.548 161.993H123.237C122.814 161.993 122.485 162.322 122.485 162.698V193.295C122.485 193.671 122.814 194 123.237 194H128.548C128.971 194 129.253 193.671 129.253 193.295V180.887H143.823V193.295C143.823 193.671 144.152 194 144.528 194H149.886C150.262 194 150.591 193.671 150.591 193.295V162.698C150.591 162.322 150.262 161.993 149.886 161.993H144.528ZM178.481 193.295C178.481 193.718 178.81 194 179.186 194H184.544C184.92 194 185.249 193.718 185.249 193.295V162.745C185.249 162.322 184.92 161.993 184.544 161.993H179.186C178.81 161.993 178.481 162.322 178.481 162.745V166.411L163.723 181.498V162.698C163.723 162.322 163.441 161.993 163.018 161.993H157.707C157.284 161.993 156.955 162.322 156.955 162.698V193.295C156.955 193.671 157.284 194 157.707 194H163.018C163.441 194 163.723 193.671 163.723 193.295V189.817L178.481 174.73V193.295ZM192.36 194H219.291V204.105C219.291 204.481 219.62 204.81 219.996 204.81H225.354C225.73 204.81 226.059 204.481 226.059 204.105V188.736C226.059 188.313 225.73 187.984 225.354 187.984H219.009V162.698C219.009 162.322 218.68 161.993 218.304 161.993H212.946C212.57 161.993 212.241 162.322 212.241 162.698V187.984H198.376V162.698C198.376 162.322 198.094 161.993 197.671 161.993H192.36C191.937 161.993 191.608 162.322 191.608 162.698V193.295C191.608 193.671 191.937 194 192.36 194ZM235.995 187.514H247.604L249.531 193.201C249.672 193.765 250.048 194 250.706 194H256.111C256.581 194 256.769 193.765 256.769 193.436C256.769 193.295 256.722 193.154 256.675 192.966L245.865 162.604C245.724 162.04 245.348 161.852 244.737 161.852H239.144C238.533 161.852 238.157 162.04 238.016 162.604L227.065 192.966C227.018 193.154 226.971 193.295 226.971 193.436C226.971 193.765 227.159 194 227.629 194H232.893C233.504 194 233.88 193.765 234.068 193.201L235.995 187.514ZM245.959 182.109H237.687L241.87 170.077L245.959 182.109ZM27.119 241.352C27.119 237.122 25.051 234.208 20.492 233.127V232.939C23.077 231.764 24.487 229.367 24.487 226.124C24.487 223.398 23.218 221.377 21.385 220.014C19.035 218.322 16.262 217.993 13.583 217.993H3.901C3.478 217.993 3.149 218.322 3.149 218.698L3.149 249.295C3.149 249.671 3.478 250 3.901 250H16.403C21.761 250 27.119 247.321 27.119 241.352ZM17.672 227.299C17.672 228.991 16.92 230.025 15.886 230.542C14.993 230.965 13.959 231.012 13.113 231.012H9.917L9.917 223.492H13.536C14.523 223.492 15.463 223.727 16.215 224.244C17.108 224.855 17.672 225.842 17.672 227.299ZM20.21 240.459C20.21 242.433 19.27 243.467 17.954 244.031C17.108 244.407 16.027 244.501 14.946 244.501H9.917L9.917 236.464H14.006C15.839 236.464 17.061 236.558 18.001 237.028C19.552 237.733 20.21 239.002 20.21 240.459ZM63.1188 229.179C63.1188 231.341 62.3198 232.798 61.0038 233.597C60.0168 234.255 58.7008 234.443 57.3848 234.443H51.1338L51.1338 223.915H57.5258C58.8888 223.915 60.0638 224.197 61.0978 224.855C62.3198 225.654 63.1188 227.064 63.1188 229.179ZM45.1178 217.993C44.6948 217.993 44.3658 218.322 44.3658 218.698L44.3658 249.295C44.3658 249.671 44.6948 250 45.1178 250H50.4288C50.8518 250 51.1338 249.671 51.1338 249.295V240.365H58.4188C60.9568 240.365 63.4948 239.942 65.7508 238.203C68.3358 236.229 69.9808 233.033 69.9808 229.179C69.9808 225.419 68.4768 222.364 66.0798 220.39C63.7768 218.51 61.0978 217.993 58.4188 217.993H45.1178ZM80.7666 243.514H92.3756L94.3026 249.201C94.4436 249.765 94.8196 250 95.4776 250H100.883C101.353 250 101.541 249.765 101.541 249.436C101.541 249.295 101.494 249.154 101.447 248.966L90.6366 218.604C90.4956 218.04 90.1196 217.852 89.5086 217.852H83.9156C83.3046 217.852 82.9286 218.04 82.7876 218.604L71.8366 248.966C71.7896 249.154 71.7426 249.295 71.7426 249.436C71.7426 249.765 71.9306 250 72.4006 250H77.6646C78.2756 250 78.6516 249.765 78.8396 249.201L80.7666 243.514ZM90.7306 238.109H82.4586L86.6416 226.077L90.7306 238.109ZM111.582 236.323C113.039 236.323 114.496 236.417 115.718 237.122C117.081 237.874 117.927 239.049 117.927 240.835C117.927 242.245 117.41 243.373 116.423 244.125C115.577 244.83 114.355 245.159 112.71 245.159C110.736 245.159 109.044 244.736 106.647 243.091C106.177 242.809 105.848 242.762 105.613 243.232L103.733 247.086C103.498 247.462 103.592 247.744 104.015 248.026C106.271 249.483 109.138 250.47 113.321 250.47C116.564 250.47 119.149 249.624 121.029 248.214C123.097 246.616 124.225 244.219 124.225 241.446C124.225 237.404 122.157 234.678 118.35 233.268C121.875 231.764 123.003 228.85 123.003 225.983C123.003 223.727 122.11 221.659 120.465 220.108C118.82 218.557 116.423 217.57 113.368 217.57C109.185 217.57 106.412 218.886 104.062 220.39C103.592 220.719 103.592 221.048 103.827 221.471L105.613 225.09C105.801 225.513 106.177 225.607 106.694 225.231C108.433 224.056 110.407 223.163 112.757 223.163C114.073 223.163 115.06 223.539 115.812 224.103C116.564 224.761 116.987 225.701 116.987 226.782C116.987 228.38 116.235 229.555 115.107 230.26C113.932 230.918 112.804 231.059 111.065 231.059H107.728C107.352 231.059 107.023 231.388 107.023 231.811V235.618C107.023 236.041 107.352 236.323 107.728 236.323H111.582ZM148.123 229.179C148.123 231.341 147.324 232.798 146.008 233.597C145.021 234.255 143.705 234.443 142.389 234.443H136.138V223.915H142.53C143.893 223.915 145.068 224.197 146.102 224.855C147.324 225.654 148.123 227.064 148.123 229.179ZM130.122 217.993C129.699 217.993 129.37 218.322 129.37 218.698L129.37 249.295C129.37 249.671 129.699 250 130.122 250L135.433 250C135.856 250 136.138 249.671 136.138 249.295L136.138 240.365H143.423C145.961 240.365 148.499 239.942 150.755 238.203C153.34 236.229 154.985 233.033 154.985 229.179C154.985 225.419 153.481 222.364 151.084 220.39C148.781 218.51 146.102 217.993 143.423 217.993H130.122ZM165.77 243.514H177.379L179.306 249.201C179.447 249.765 179.823 250 180.481 250H185.886C186.356 250 186.544 249.765 186.544 249.436C186.544 249.295 186.497 249.154 186.45 248.966L175.64 218.604C175.499 218.04 175.123 217.852 174.512 217.852H168.919C168.308 217.852 167.932 218.04 167.791 218.604L156.84 248.966C156.793 249.154 156.746 249.295 156.746 249.436C156.746 249.765 156.934 250 157.404 250H162.668C163.279 250 163.655 249.765 163.843 249.201L165.77 243.514ZM175.734 238.109H167.462L171.645 226.077L175.734 238.109ZM190.57 217.993C190.147 217.993 189.818 218.322 189.818 218.698L189.818 249.295C189.818 249.671 190.147 250 190.57 250H202.226C204.623 250 207.114 249.577 209.182 248.496C211.861 247.133 213.788 244.548 213.788 240.412C213.788 235.994 211.814 233.597 209.135 232.328C206.785 231.2 203.871 231.012 201.615 231.012H196.586V224.009H210.78C211.156 224.009 211.485 223.68 211.485 223.304V218.698C211.485 218.322 211.156 217.993 210.78 217.993H190.57ZM206.879 240.412C206.879 242.104 206.174 243.185 205.046 243.796C204.153 244.313 202.931 244.501 201.615 244.501H196.586V236.464H201.098C202.555 236.464 203.777 236.699 204.717 237.075C206.174 237.733 206.879 238.861 206.879 240.412ZM251.912 234.067C251.912 224.197 244.392 217.57 234.804 217.57C225.216 217.57 217.649 224.15 217.649 234.067C217.649 243.984 225.216 250.47 234.804 250.47C244.392 250.47 251.912 243.937 251.912 234.067ZM244.721 234.067C244.721 239.801 240.538 244.172 234.804 244.172C229.07 244.172 224.84 239.848 224.84 234.067C224.84 228.333 229.07 223.915 234.804 223.915C240.538 223.915 244.721 228.333 244.721 234.067ZM254.899 217.993C254.523 217.993 254.194 218.322 254.194 218.698V223.304C254.194 223.68 254.523 224.009 254.899 224.009H264.487V249.295C264.487 249.671 264.816 250 265.192 250H270.55C270.926 250 271.255 249.671 271.255 249.295V224.009H280.843C281.266 224.009 281.595 223.68 281.595 223.304V218.698C281.595 218.322 281.266 217.993 280.843 217.993H254.899ZM305.078 217.993C304.467 217.993 304.091 218.228 303.715 218.698L294.174 230.918H291.871V218.698C291.871 218.322 291.589 217.993 291.166 217.993H285.855C285.432 217.993 285.103 218.322 285.103 218.698V249.295C285.103 249.671 285.432 250 285.855 250H291.166C291.589 250 291.871 249.671 291.871 249.295V236.934H294.221L303.903 249.295C304.279 249.812 304.655 250 305.266 250H311.611C312.316 250 312.41 249.389 311.94 248.778L299.767 233.55L311.564 219.074C311.94 218.557 311.846 217.993 311.094 217.993H305.078ZM316.653 217.993C316.23 217.993 315.901 218.322 315.901 218.698V249.295C315.901 249.671 316.23 250 316.653 250H339.307C339.73 250 340.059 249.671 340.059 249.295V244.736C340.059 244.313 339.73 244.031 339.307 244.031H322.669V236.934H336.863C337.239 236.934 337.568 236.605 337.568 236.182V231.623C337.568 231.247 337.239 230.918 336.863 230.918H322.669V224.009H339.307C339.73 224.009 340.059 223.68 340.059 223.304V218.698C340.059 218.322 339.73 217.993 339.307 217.993H316.653ZM352.381 248.214C352.287 245.065 350.83 242.997 347.869 242.997C345.519 242.997 344.015 244.454 344.015 246.616C344.015 249.765 346.882 249.342 346.882 251.269C346.882 252.632 345.378 253.572 344.391 254.23C344.062 254.465 343.921 254.794 344.203 255.217L344.814 256.204C345.049 256.533 345.331 256.627 345.848 256.486C349.326 255.452 352.428 251.833 352.381 248.214ZM36.143 290.067C36.143 280.197 28.623 273.57 19.035 273.57C9.447 273.57 1.88 280.15 1.88 290.067C1.88 299.984 9.447 306.47 19.035 306.47C28.623 306.47 36.143 299.937 36.143 290.067ZM28.952 290.067C28.952 295.801 24.769 300.172 19.035 300.172C13.301 300.172 9.071 295.848 9.071 290.067C9.071 284.333 13.301 279.915 19.035 279.915C24.769 279.915 28.952 284.333 28.952 290.067ZM56.9438 306.47C61.4088 306.47 64.4638 305.436 66.9548 304.167C67.3778 303.979 67.4718 303.697 67.2838 303.274L65.1218 298.668C64.9338 298.245 64.6988 298.245 64.2758 298.433C62.2548 299.514 59.9048 300.313 56.9908 300.313C51.3508 300.313 47.0268 296.083 47.0268 289.973C47.0268 284.098 51.5388 279.68 56.9438 279.68C59.8578 279.68 62.0198 280.573 63.9938 281.56C64.3698 281.748 64.7458 281.701 64.9338 281.278L67.0958 276.766C67.2838 276.39 67.2368 276.061 66.7668 275.779C64.5578 274.651 61.5968 273.57 57.0848 273.57C47.4968 273.57 39.9298 280.62 39.9298 289.973C39.9298 300.078 46.6038 306.47 56.9438 306.47ZM69.8828 273.993C69.5068 273.993 69.1778 274.322 69.1778 274.698V279.304C69.1778 279.68 69.5068 280.009 69.8828 280.009H79.4708L79.4708 305.295C79.4708 305.671 79.7998 306 80.1758 306H85.5338C85.9098 306 86.2388 305.671 86.2388 305.295L86.2388 280.009H95.8268C96.2498 280.009 96.5788 279.68 96.5788 279.304V274.698C96.5788 274.322 96.2498 273.993 95.8268 273.993H69.8828ZM102.293 299.514H113.902L115.829 305.201C115.97 305.765 116.346 306 117.004 306H122.409C122.879 306 123.067 305.765 123.067 305.436C123.067 305.295 123.02 305.154 122.973 304.966L112.163 274.604C112.022 274.04 111.646 273.852 111.035 273.852H105.442C104.831 273.852 104.455 274.04 104.314 274.604L93.3629 304.966C93.3159 305.154 93.2689 305.295 93.2689 305.436C93.2689 305.765 93.4569 306 93.9269 306H99.1909C99.8019 306 100.178 305.765 100.366 305.201L102.293 299.514ZM112.257 294.109H103.985L108.168 282.077L112.257 294.109ZM130.617 305.248C132.121 303.509 133.625 299.561 134.236 296.694C135.223 292.558 135.505 287.764 135.505 283.628V280.009H146.55V305.295C146.55 305.671 146.879 306 147.255 306H152.613C152.989 306 153.318 305.671 153.318 305.295V274.698C153.318 274.322 152.989 273.993 152.613 273.993H129.442C129.066 273.993 128.737 274.322 128.737 274.698V283.628C128.737 288.328 128.502 292.464 127.75 296.083C127.045 299.185 125.964 302.099 124.319 304.543C123.708 305.483 124.131 306 124.883 306H128.925C129.771 306 130.147 305.859 130.617 305.248ZM192.657 290.067C192.657 280.197 185.137 273.57 175.549 273.57C165.961 273.57 158.394 280.15 158.394 290.067C158.394 299.984 165.961 306.47 175.549 306.47C185.137 306.47 192.657 299.937 192.657 290.067ZM185.466 290.067C185.466 295.801 181.283 300.172 175.549 300.172C169.815 300.172 165.585 295.848 165.585 290.067C165.585 284.333 169.815 279.915 175.549 279.915C181.283 279.915 185.466 284.333 185.466 290.067ZM213.457 306.47C217.922 306.47 220.977 305.436 223.468 304.167C223.891 303.979 223.985 303.697 223.797 303.274L221.635 298.668C221.447 298.245 221.212 298.245 220.789 298.433C218.768 299.514 216.418 300.313 213.504 300.313C207.864 300.313 203.54 296.083 203.54 289.973C203.54 284.098 208.052 279.68 213.457 279.68C216.371 279.68 218.533 280.573 220.507 281.56C220.883 281.748 221.259 281.701 221.447 281.278L223.609 276.766C223.797 276.39 223.75 276.061 223.28 275.779C221.071 274.651 218.11 273.57 213.598 273.57C204.01 273.57 196.443 280.62 196.443 289.973C196.443 300.078 203.117 306.47 213.457 306.47ZM228.464 305.295C228.464 305.671 228.793 306 229.216 306H240.872C243.269 306 245.76 305.577 247.828 304.496C250.507 303.133 252.434 300.548 252.434 296.412C252.434 291.994 250.46 289.597 247.781 288.328C245.431 287.2 242.517 287.012 240.261 287.012H235.232V274.698C235.232 274.322 234.95 273.993 234.527 273.993H229.216C228.793 273.993 228.464 274.322 228.464 274.698V305.295ZM245.525 296.412C245.525 298.104 244.82 299.185 243.692 299.796C242.799 300.313 241.577 300.501 240.261 300.501H235.232V292.464H239.744C241.201 292.464 242.423 292.699 243.363 293.075C244.82 293.733 245.525 294.861 245.525 296.412ZM18.894 362.47C23.359 362.47 26.414 361.436 28.905 360.167C29.328 359.979 29.422 359.697 29.234 359.274L27.072 354.668C26.884 354.245 26.649 354.245 26.226 354.433C24.205 355.514 21.855 356.313 18.941 356.313C13.301 356.313 8.977 352.083 8.977 345.973C8.977 340.098 13.489 335.68 18.894 335.68C21.808 335.68 23.97 336.573 25.944 337.56C26.32 337.748 26.696 337.701 26.884 337.278L29.046 332.766C29.234 332.39 29.187 332.061 28.717 331.779C26.508 330.651 23.547 329.57 19.035 329.57C9.447 329.57 1.88 336.62 1.88 345.973C1.88 356.078 8.554 362.47 18.894 362.47ZM65.1508 346.067C65.1508 336.197 57.6308 329.57 48.0428 329.57C38.4548 329.57 30.8878 336.15 30.8878 346.067C30.8878 355.984 38.4548 362.47 48.0428 362.47C57.6308 362.47 65.1508 355.937 65.1508 346.067ZM57.9598 346.067C57.9598 351.801 53.7768 356.172 48.0428 356.172C42.3088 356.172 38.0788 351.848 38.0788 346.067C38.0788 340.333 42.3088 335.915 48.0428 335.915C53.7768 335.915 57.9598 340.333 57.9598 346.067ZM94.1766 353.352C94.1766 349.122 92.1086 346.208 87.5496 345.127V344.939C90.1346 343.764 91.5446 341.367 91.5446 338.124C91.5446 335.398 90.2756 333.377 88.4426 332.014C86.0926 330.322 83.3196 329.993 80.6406 329.993H70.9586C70.5356 329.993 70.2066 330.322 70.2066 330.698V361.295C70.2066 361.671 70.5356 362 70.9586 362H83.4606C88.8186 362 94.1766 359.321 94.1766 353.352ZM84.7296 339.299C84.7296 340.991 83.9776 342.025 82.9436 342.542C82.0506 342.965 81.0166 343.012 80.1706 343.012H76.9746V335.492H80.5936C81.5806 335.492 82.5206 335.727 83.2726 336.244C84.1656 336.855 84.7296 337.842 84.7296 339.299ZM87.2676 352.459C87.2676 354.433 86.3276 355.467 85.0116 356.031C84.1656 356.407 83.0846 356.501 82.0036 356.501H76.9746V348.464H81.0636C82.8966 348.464 84.1186 348.558 85.0586 349.028C86.6096 349.733 87.2676 351.002 87.2676 352.459ZM115.051 362.47C119.516 362.47 122.571 361.436 125.062 360.167C125.485 359.979 125.579 359.697 125.391 359.274L123.229 354.668C123.041 354.245 122.806 354.245 122.383 354.433C120.362 355.514 118.012 356.313 115.098 356.313C109.458 356.313 105.134 352.083 105.134 345.973C105.134 340.098 109.646 335.68 115.051 335.68C117.965 335.68 120.127 336.573 122.101 337.56C122.477 337.748 122.853 337.701 123.041 337.278L125.203 332.766C125.391 332.39 125.344 332.061 124.874 331.779C122.665 330.651 119.704 329.57 115.192 329.57C105.604 329.57 98.0372 336.62 98.0372 345.973C98.0372 356.078 104.711 362.47 115.051 362.47ZM130.81 329.993C130.387 329.993 130.058 330.322 130.058 330.698V361.295C130.058 361.671 130.387 362 130.81 362H153.464C153.887 362 154.216 361.671 154.216 361.295V356.736C154.216 356.313 153.887 356.031 153.464 356.031H136.826V348.934H151.02C151.396 348.934 151.725 348.605 151.725 348.182V343.623C151.725 343.247 151.396 342.918 151.02 342.918H136.826V336.009H153.464C153.887 336.009 154.216 335.68 154.216 335.304V330.698C154.216 330.322 153.887 329.993 153.464 329.993H130.81ZM192.247 330.698C192.247 330.322 191.918 329.993 191.495 329.993H186.09C185.526 329.993 185.15 330.087 184.821 330.745L175.656 346.584L166.538 330.745C166.162 330.087 165.786 329.993 165.222 329.993H159.864C159.441 329.993 159.112 330.322 159.112 330.698V361.295C159.112 361.671 159.441 362 159.864 362H164.94C165.363 362 165.692 361.671 165.692 361.295V341.743L172.695 353.634C172.977 354.151 173.259 354.386 173.823 354.386H177.724C178.335 354.386 178.57 354.151 178.852 353.634L185.667 341.743V361.295C185.667 361.671 185.996 362 186.419 362H191.495C191.918 362 192.247 361.671 192.247 361.295V330.698ZM25.192 385.993C24.816 385.993 24.487 386.322 24.487 386.698L24.487 398.918H9.917L9.917 386.698C9.917 386.322 9.635 385.993 9.212 385.993H3.901C3.478 385.993 3.149 386.322 3.149 386.698L3.149 417.295C3.149 417.671 3.478 418 3.901 418H9.212C9.635 418 9.917 417.671 9.917 417.295L9.917 404.887H24.487L24.487 417.295C24.487 417.671 24.816 418 25.192 418H30.55C30.926 418 31.255 417.671 31.255 417.295L31.255 386.698C31.255 386.322 30.926 385.993 30.55 385.993H25.192ZM38.3707 385.993C37.9477 385.993 37.6187 386.322 37.6187 386.698L37.6187 417.295C37.6187 417.671 37.9477 418 38.3707 418H61.0247C61.4477 418 61.7767 417.671 61.7767 417.295V412.736C61.7767 412.313 61.4477 412.031 61.0247 412.031H44.3867V404.934H58.5807C58.9567 404.934 59.2857 404.605 59.2857 404.182L59.2857 399.623C59.2857 399.247 58.9567 398.918 58.5807 398.918H44.3867V392.009H61.0247C61.4477 392.009 61.7767 391.68 61.7767 391.304V386.698C61.7767 386.322 61.4477 385.993 61.0247 385.993H38.3707ZM99.8074 386.698C99.8074 386.322 99.4784 385.993 99.0554 385.993H93.6504C93.0864 385.993 92.7104 386.087 92.3814 386.745L83.2164 402.584L74.0984 386.745C73.7224 386.087 73.3464 385.993 72.7824 385.993H67.4244C67.0014 385.993 66.6724 386.322 66.6724 386.698V417.295C66.6724 417.671 67.0014 418 67.4244 418H72.5004C72.9234 418 73.2524 417.671 73.2524 417.295V397.743L80.2554 409.634C80.5374 410.151 80.8194 410.386 81.3834 410.386H85.2844C85.8954 410.386 86.1304 410.151 86.4124 409.634L93.2274 397.743V417.295C93.2274 417.671 93.5564 418 93.9794 418H99.0554C99.4784 418 99.8074 417.671 99.8074 417.295V386.698ZM128.188 385.993C127.812 385.993 127.483 386.322 127.483 386.698V398.918H112.913V386.698C112.913 386.322 112.631 385.993 112.208 385.993H106.897C106.474 385.993 106.145 386.322 106.145 386.698V417.295C106.145 417.671 106.474 418 106.897 418H112.208C112.631 418 112.913 417.671 112.913 417.295V404.887H127.483V417.295C127.483 417.671 127.812 418 128.188 418H133.546C133.922 418 134.251 417.671 134.251 417.295V386.698C134.251 386.322 133.922 385.993 133.546 385.993H128.188ZM173.609 402.067C173.609 392.197 166.089 385.57 156.501 385.57C146.913 385.57 139.346 392.15 139.346 402.067C139.346 411.984 146.913 418.47 156.501 418.47C166.089 418.47 173.609 411.937 173.609 402.067ZM166.418 402.067C166.418 407.801 162.235 412.172 156.501 412.172C150.767 412.172 146.537 407.848 146.537 402.067C146.537 396.333 150.767 391.915 156.501 391.915C162.235 391.915 166.418 396.333 166.418 402.067ZM184.728 418C185.151 418 185.433 417.671 185.433 417.295V392.009H199.11C199.533 392.009 199.862 391.68 199.862 391.304V386.698C199.862 386.322 199.533 385.993 199.11 385.993H179.417C178.994 385.993 178.665 386.322 178.665 386.698V417.295C178.665 417.671 178.994 418 179.417 418H184.728ZM233.965 402.067C233.965 392.197 226.445 385.57 216.857 385.57C207.269 385.57 199.702 392.15 199.702 402.067C199.702 411.984 207.269 418.47 216.857 418.47C226.445 418.47 233.965 411.937 233.965 402.067ZM226.774 402.067C226.774 407.801 222.591 412.172 216.857 412.172C211.123 412.172 206.893 407.848 206.893 402.067C206.893 396.333 211.123 391.915 216.857 391.915C222.591 391.915 226.774 396.333 226.774 402.067Z" fill="white"/>
<g clip-path="url(#clip0)">
<path d="M91.8816 137.755H58.7216C58.7216 137.755 58.995 132.722 61.1134 128.893C63.2318 125.064 69.6172 119.555 84.0203 118.668C72.8382 106.358 77.5567 93.0308 78.5594 86.6831C65.6149 86.1682 52.6313 85.6922 49.1803 77.1204C44.796 66.225 57.0807 57.3632 63.5052 54.2608C74.0145 49.1939 91.2869 49.3886 91.2869 49.3886L107.383 17.8014C107.383 17.8014 117.059 -4.05003 133.276 8.10888C146.651 19.1125 129.613 32.2882 129.613 32.2882L99.8125 60.6301C99.8125 60.6301 138.195 65.1519 155.992 74.9958C171.954 83.8273 177.931 99.2833 173.334 114.199C170.183 124.432 158.076 137.755 158.076 137.755H91.8816C91.8816 137.755 92.5067 132.489 94.4862 128.015C97.1472 122.039 106.133 119.361 115.322 118.404C113.152 96.4232 134.327 99.7507 134.327 99.7507" stroke="white" stroke-width="7" stroke-linecap="round" stroke-linejoin="round"/>
<path d="M85.7523 46.3509L89.7112 20.7696C89.7112 20.7696 92.0683 -4.61265 115.192 5.70295" stroke="white" stroke-width="7" stroke-linecap="round" stroke-linejoin="round"/>
<path d="M177.167 108.608C179.136 108.608 181.073 109.108 182.794 110.062C184.515 111.016 185.964 112.391 187.003 114.058C188.042 115.726 188.637 117.63 188.732 119.59C188.828 121.551 188.42 123.503 187.547 125.263C186.674 127.022 185.366 128.531 183.745 129.646C182.124 130.761 180.245 131.445 178.285 131.635C176.325 131.824 174.349 131.512 172.544 130.728C170.739 129.943 169.164 128.713 167.969 127.154" stroke="white" stroke-width="7" stroke-linecap="round" stroke-linejoin="round"/>
</g>
<defs>
<clipPath id="clip0">
<rect width="147" height="141" fill="white" transform="translate(45)"/>
</clipPath>
</defs>
</svg>
