<svg width="32" height="32" viewBox="0 0 32 32" fill="none" xmlns="http://www.w3.org/2000/svg">
<path fill-rule="evenodd" clip-rule="evenodd" d="M23.979 12.3412C24.1027 11.9352 23.979 11.6367 23.391 11.6367H21.4465C20.9521 11.6367 20.7243 11.8945 20.6007 12.1789C20.6007 12.1789 19.6118 14.5546 18.211 16.0978C17.7578 16.5445 17.5518 16.6865 17.3046 16.6865C17.181 16.6865 17.0021 16.5445 17.0021 16.1384V12.3412C17.0021 11.8539 16.8586 11.6367 16.4465 11.6367H13.391C13.0821 11.6367 12.8963 11.8629 12.8963 12.0773C12.8963 12.5393 13.5965 12.6458 13.6688 13.9453V16.7679C13.6688 17.3867 13.5554 17.499 13.3082 17.499C12.649 17.499 11.0457 15.1125 10.0946 12.3819C9.90819 11.8511 9.72125 11.6367 9.2243 11.6367H7.27986C6.7243 11.6367 6.61319 11.8945 6.61319 12.1789C6.61319 12.6865 7.2725 15.2045 9.68264 18.5345C11.2896 20.8085 13.5532 22.0415 15.6132 22.0415C16.8493 22.0415 17.0021 21.7677 17.0021 21.296V19.5772C17.0021 19.0296 17.1192 18.9203 17.5104 18.9203C17.799 18.9203 18.2933 19.0624 19.4471 20.1589C20.7654 21.4583 20.9827 22.0415 21.7243 22.0415H23.6688C24.2243 22.0415 24.5021 21.7677 24.3418 21.2273C24.1665 20.6887 23.5371 19.9075 22.7018 18.9812C22.2486 18.4532 21.5688 17.8846 21.3629 17.6004C21.0745 17.2349 21.1568 17.0725 21.3629 16.7478C21.3629 16.7478 23.7318 13.4582 23.979 12.3414V12.3412Z" fill="#8DC63F"/>
<circle cx="16" cy="16" r="15.5" stroke="#8DC63F"/>
</svg>
