<?xml version="1.0" encoding="utf-8"?>
<!-- Generator: Adobe Illustrator 23.0.2, SVG Export Plug-In . SVG Version: 6.00 Build 0)  -->
<svg version="1.1" id="Layer_1" xmlns="http://www.w3.org/2000/svg" xmlns:xlink="http://www.w3.org/1999/xlink" x="0px" y="0px"
	 viewBox="0 0 24.9 24.9" style="enable-background:new 0 0 24.9 24.9;" xml:space="preserve">
<style type="text/css">
	.st0{fill-rule:evenodd;clip-rule:evenodd;fill:#FFFFFF;}
</style>
<g>
	<g>
		<path id="Vector" class="st0" d="M23.6,6.6c0.2-0.5,0-0.9-0.8-0.9h-2.6c-0.7,0-1,0.3-1.1,0.7c0,0-1.3,3.1-3.1,5.1
			c-0.6,0.6-0.9,0.8-1.2,0.8c-0.2,0-0.4-0.2-0.4-0.7v-5c0-0.6-0.2-0.9-0.7-0.9h-4C9.3,5.7,9,6,9,6.3c0,0.6,0.9,0.7,1,2.4v3.7
			c0,0.8-0.1,1-0.5,1c-0.9,0-3-3.1-4.2-6.7c-0.2-0.7-0.5-1-1.1-1H1.7C0.9,5.7,0.8,6,0.8,6.4c0,0.7,0.9,3.9,4,8.3
			c2.1,3,5.1,4.6,7.8,4.6c1.6,0,1.8-0.4,1.8-1V16c0-0.7,0.2-0.9,0.7-0.9c0.4,0,1,0.2,2.5,1.6c1.7,1.7,2,2.5,3,2.5h2.6
			c0.7,0,1.1-0.4,0.9-1.1c-0.2-0.7-1.1-1.7-2.2-2.9c-0.6-0.7-1.5-1.4-1.8-1.8c-0.4-0.5-0.3-0.7,0-1.1C20.2,12.4,23.3,8.1,23.6,6.6
			L23.6,6.6z"/>
	</g>
</g>
</svg>
