<?xml version="1.0" encoding="utf-8"?>
<!-- Generator: Adobe Illustrator 23.0.1, SVG Export Plug-In . SVG Version: 6.00 Build 0)  -->
<svg version="1.1" id="Layer_1" xmlns="http://www.w3.org/2000/svg" xmlns:xlink="http://www.w3.org/1999/xlink" x="0px" y="0px"
	 viewBox="0 0 24 24" style="enable-background:new 0 0 24 24;" xml:space="preserve">
<style type="text/css">
	.st0{fill-rule:evenodd;clip-rule:evenodd;fill:#FFFFFF;}
</style>
<path id="Vector" class="st0" d="M23.4,6c0.2-0.5,0-0.9-0.8-0.9H20c-0.7,0-1,0.3-1.1,0.7c0,0-1.3,3.2-3.2,5.2
	c-0.6,0.6-0.9,0.8-1.2,0.8c-0.2,0-0.4-0.2-0.4-0.7V6C14,5.3,13.8,5,13.3,5H9.2C8.7,5,8.5,5.3,8.5,5.6c0,0.6,0.9,0.8,1,2.5v3.8
	c0,0.8-0.2,1-0.5,1C8.2,12.9,6,9.7,4.7,6C4.4,5.3,4.2,5,3.5,5H0.9C0.2,5,0,5.4,0,5.8c0,0.7,0.9,4,4.1,8.5c2.2,3,5.2,4.7,8,4.7
	c1.7,0,1.9-0.4,1.9-1v-2.3c0-0.7,0.2-0.9,0.7-0.9c0.4,0,1.1,0.2,2.6,1.7c1.8,1.7,2.1,2.5,3.1,2.5H23c0.8,0,1.1-0.4,0.9-1.1
	c-0.2-0.7-1.1-1.8-2.2-3c-0.6-0.7-1.5-1.5-1.8-1.8c-0.4-0.5-0.3-0.7,0-1.1C19.9,11.9,23.1,7.5,23.4,6L23.4,6z"/>
</svg>
