<svg width="25" height="26" viewBox="0 0 25 26" fill="none" xmlns="http://www.w3.org/2000/svg">
<g id="Vkontakte (VK)">
<g id="Vkontakte (VK)_2">
<path id="Vector" fill-rule="evenodd" clip-rule="evenodd" d="M23.6567 7.77003C23.8193 7.24058 23.6567 6.85144 22.8829 6.85144H20.3245C19.6739 6.85144 19.3742 7.18756 19.2115 7.55832C19.2115 7.55832 17.9103 10.6559 16.0671 12.668C15.4708 13.2505 15.1998 13.4356 14.8745 13.4356C14.7119 13.4356 14.4765 13.2505 14.4765 12.721V7.77003C14.4765 7.13455 14.2877 6.85144 13.7455 6.85144H9.72503C9.31859 6.85144 9.07407 7.14633 9.07407 7.42587C9.07407 8.02832 9.99549 8.1672 10.0905 9.86156V13.5418C10.0905 14.3486 9.9414 14.495 9.61611 14.495C8.74878 14.495 6.63913 11.3833 5.38767 7.82304C5.14242 7.13098 4.89644 6.85144 4.24256 6.85144H1.68408C0.953084 6.85144 0.806885 7.18756 0.806885 7.55832C0.806885 8.22021 1.67439 11.5033 4.84563 15.8452C6.96004 18.8102 9.93848 20.4178 12.649 20.4178C14.2755 20.4178 14.4765 20.0608 14.4765 19.4458V17.2047C14.4765 16.4907 14.6306 16.3482 15.1454 16.3482C15.5251 16.3482 16.1755 16.5335 17.6936 17.9632C19.4283 19.6574 19.7141 20.4178 20.69 20.4178H23.2484C23.9794 20.4178 24.3449 20.0608 24.134 19.3562C23.9034 18.654 23.0752 17.6354 21.9761 16.4277C21.3798 15.7392 20.4853 14.9979 20.2144 14.6273C19.8349 14.1507 19.9432 13.939 20.2144 13.5156C20.2144 13.5156 23.3314 9.22644 23.6567 7.7702V7.77003Z" fill="white"/>
</g>
</g>
</svg>
